{
 "cells": [
  {
   "cell_type": "code",
   "execution_count": 8,
   "metadata": {},
   "outputs": [],
   "source": [
    "import os\n",
    "import glob\n",
    "import pandas as pd\n",
    "import textgrids\n",
    "import tqdm\n",
    "from utils import flac_to_wav"
   ]
  },
  {
   "cell_type": "markdown",
   "metadata": {},
   "source": [
    "# Create Subset json"
   ]
  },
  {
   "cell_type": "markdown",
   "metadata": {},
   "source": [
    "## Keep files in subset"
   ]
  },
  {
   "cell_type": "code",
   "execution_count": 3,
   "metadata": {},
   "outputs": [],
   "source": [
    "import ast\n",
    "\n",
    "def get_subset_df(json_dir=None):\n",
    "    if not json_dir:\n",
    "        json_dir = '/home/knoriy/Documents/laion/pps_split/flac_train_manifest.jsonl'\n",
    "\n",
    "    with open(json_dir, 'r') as json_file:\n",
    "        json_list = list(json_file)\n",
    "\n",
    "    df = pd.DataFrame.from_dict(json_list)\n",
    "    df[0] = df[0].apply(lambda x: ast.literal_eval(x))\n",
    "\n",
    "    for keys in df[0][0].keys():\n",
    "        df[keys] = [path[0][keys] for path in df.iloc()]\n",
    "\n",
    "    subset = glob.glob('/home/knoriy/Documents/laion/pps_split/subset/**/*.flac', recursive=True)\n",
    "    subset = [os.path.join(*(dir.split(os.path.sep)[7:])) for dir in subset]\n",
    "\n",
    "    subset_df = df[df['audio_filepath'].isin(subset)].reset_index(drop=True)\n",
    "    subset_df = subset_df.drop(0, axis=1)\n",
    "\n",
    "    return subset_df\n",
    "\n",
    "get_subset_df().to_csv('/home/knoriy/Documents/laion/pps_split/subset.tsv', sep='\\t', header=None, index=False)"
   ]
  },
  {
   "cell_type": "markdown",
   "metadata": {},
   "source": [
    "# prepare MFA"
   ]
  },
  {
   "cell_type": "code",
   "execution_count": 4,
   "metadata": {},
   "outputs": [],
   "source": [
    "# Clean old wavs ONLY FOR TESTING\n",
    "import glob\n",
    "\n",
    "old_wav_path = glob.glob(f'/home/knoriy/Documents/laion/pps_split/subset/**/*.wav', recursive=True)\n",
    "for wav_path in old_wav_path:\n",
    "    os.remove(wav_path)\n",
    "\n",
    "old_txt_path = glob.glob(f'/home/knoriy/Documents/laion/pps_split/subset/**/*.txt', recursive=True)\n",
    "for txt_path in old_txt_path:\n",
    "    os.remove(txt_path)"
   ]
  },
  {
   "cell_type": "code",
   "execution_count": 5,
   "metadata": {},
   "outputs": [],
   "source": [
    "def generate_txt(df):\n",
    "    for row in tqdm.tqdm(df.iloc, desc=\"Generating .txt files for MFA\"):\n",
    "        open(f'./subset/{row[\"audio_filepath\"].split(\".\")[0]}.txt', 'w').write(row['text'])"
   ]
  },
  {
   "cell_type": "code",
   "execution_count": 10,
   "metadata": {},
   "outputs": [],
   "source": [
    "# base_pps_dataset_path = '/home/knoriy/Documents/laion/pps_split/subset'\n",
    "\n",
    "# # Converting Flac to wav\n",
    "# for row in df.iloc:\n",
    "#     flac_path = os.path.join(base_pps_dataset_path, f'{row[0]}')\n",
    "#     wav_path = os.path.join(base_pps_dataset_path, f'{row[0].split(\".\")[0]}.wav')\n",
    "\n",
    "#     flac_to_wav(flac_path, wav_path, overwrite=True, no_log=False)"
   ]
  },
  {
   "cell_type": "markdown",
   "metadata": {},
   "source": [
    "## Generate TextGrid alignments"
   ]
  },
  {
   "cell_type": "code",
   "execution_count": 7,
   "metadata": {},
   "outputs": [],
   "source": [
    "def generate_alignments(src, dest, overwrite=True):\n",
    "    # if os.path.exists(dest): raise Warning(\"Desitination Folder already exists\")\n",
    "    os.system(f'mfa align --clean {src} english english {dest}')\n",
    "\n",
    "def generate_textgrids(dataset_root_path):\n",
    "    generate_alignments(dataset_root_path, f\"{dataset_root_path}_textgrids\")\n",
    "\n",
    "# generate_textgrids('/home/knoriy/Documents/laion/pps_split/subset/')"
   ]
  },
  {
   "cell_type": "markdown",
   "metadata": {},
   "source": [
    "# Split audio into 5-10 seconds"
   ]
  },
  {
   "cell_type": "code",
   "execution_count": 9,
   "metadata": {},
   "outputs": [],
   "source": [
    "def get_potential_splits(textgrid_words):\n",
    "\n",
    "    potential_split_points = []\n",
    "    for index, word in enumerate(textgrid_words):\n",
    "        if word.text != \"\":\n",
    "            continue\n",
    "        if word.xmin > 5 and word.xmax < 10: # find split that are longer than 5 sec and shorter than 10\n",
    "            potential_split_points.append(index)\n",
    "            # print(word.xmin, word.xmax)\n",
    "\n",
    "    return potential_split_points\n",
    "\n",
    "def get_longest_silance(textgrid_words):\n",
    "    potential_split_points = get_potential_splits(textgrid_words)\n",
    "\n",
    "    silance_length = 0\n",
    "    word_index = None\n",
    "    time = 0\n",
    "\n",
    "    for index in potential_split_points:\n",
    "        silance = textgrid_words[index]\n",
    "        \n",
    "        if (silance.xmax - silance.xmin) > silance_length:\n",
    "            silance_length = (silance.xmax - silance.xmin)\n",
    "            word_index = index\n",
    "\n",
    "            time = (silance.xmax + silance.xmin) / 2\n",
    "\n",
    "    return word_index, time"
   ]
  },
  {
   "cell_type": "code",
   "execution_count": 10,
   "metadata": {},
   "outputs": [],
   "source": [
    "def split_audio(root_textgrid_path, root_wav_path):\n",
    "    textgrid_paths = glob.glob(f'{root_textgrid_path}/**/*.TextGrid', recursive=True)\n",
    "\n",
    "    for path in tqdm.tqdm(textgrid_paths, desc='spliting flac files into 5-10 seconds'):\n",
    "        textgrid = textgrids.TextGrid(path)\n",
    "        split_time = get_longest_silance(textgrid.get('words'))[1]\n",
    "\n",
    "        # get src path\n",
    "        wav_paths = os.path.split(path)\n",
    "        wav_file_name = f'{str(wav_paths[-1]).split(\".\")[0]}.flac'\n",
    "        wav_folder_name = os.path.split(wav_paths[0])[-1]\n",
    "\n",
    "        src_wav_path = os.path.join(root_wav_path, wav_folder_name, wav_file_name) # remove aligned and replace file extension\n",
    "\n",
    "        # create destinaltion path\n",
    "        processed_path = os.path.join(f'{root_wav_path}_split', wav_folder_name)\n",
    "        os.makedirs(processed_path, exist_ok=True)\n",
    "        dest_path = os.path.join(processed_path, f\"{wav_file_name}_%03d.flac\")\n",
    "\n",
    "        # Split audio\n",
    "        os.system(f\"ffmpeg -i {src_wav_path} -f segment -segment_times {split_time} {dest_path}\")"
   ]
  },
  {
   "cell_type": "code",
   "execution_count": 11,
   "metadata": {},
   "outputs": [
    {
     "name": "stderr",
     "output_type": "stream",
     "text": [
      "Generating .txt files for MFA: 15it [00:00, 2741.85it/s]\n",
      "Converting .flac files to .wav: 0it [00:00, ?it/s]ffmpeg version 5.0 Copyright (c) 2000-2022 the FFmpeg developers\n",
      "  built with gcc 10.3.0 (GCC)\n",
      "  configuration: --prefix=/home/knoriy/anaconda3/envs/aligner --cc=/home/conda/feedstock_root/build_artifacts/ffmpeg_1646229198505/_build_env/bin/x86_64-conda-linux-gnu-cc --disable-doc --disable-openssl --enable-demuxer=dash --enable-gnutls --enable-gpl --enable-hardcoded-tables --enable-libfreetype --enable-libopenh264 --enable-vaapi --enable-libx264 --enable-libx265 --enable-libaom --enable-libsvtav1 --enable-libxml2 --enable-libvpx --enable-pic --enable-pthreads --enable-shared --disable-static --enable-version3 --enable-zlib --enable-libmp3lame --pkg-config=/home/conda/feedstock_root/build_artifacts/ffmpeg_1646229198505/_build_env/bin/pkg-config\n",
      "  libavutil      57. 17.100 / 57. 17.100\n",
      "  libavcodec     59. 18.100 / 59. 18.100\n",
      "  libavformat    59. 16.100 / 59. 16.100\n",
      "  libavdevice    59.  4.100 / 59.  4.100\n",
      "  libavfilter     8. 24.100 /  8. 24.100\n",
      "  libswscale      6.  4.100 /  6.  4.100\n",
      "  libswresample   4.  3.100 /  4.  3.100\n",
      "  libpostproc    56.  3.100 / 56.  3.100\n",
      "Input #0, flac, from '/home/knoriy/Documents/laion/pps_split/subset/1-4-17_City_Council/1-4-17_City_Council_DOT_mp3_00131.flac':\n",
      "  Metadata:\n",
      "    comment         : Processed by SoX\n",
      "    encoder         : Lavf58.29.100\n",
      "  Duration: 00:00:01.86, start: 0.000000, bitrate: 163 kb/s\n",
      "  Stream #0:0: Audio: flac, 16000 Hz, mono, s16\n",
      "Stream mapping:\n",
      "  Stream #0:0 -> #0:0 (flac (native) -> pcm_s16le (native))\n",
      "Press [q] to stop, [?] for help\n",
      "Output #0, wav, to '/home/knoriy/Documents/laion/pps_split/subset/1-4-17_City_Council/1-4-17_City_Council_DOT_mp3_00131.wav':\n",
      "  Metadata:\n",
      "    ICMT            : Processed by SoX\n",
      "    ISFT            : Lavf59.16.100\n",
      "  Stream #0:0: Audio: pcm_s16le ([1][0][0][0] / 0x0001), 16000 Hz, mono, s16, 256 kb/s\n",
      "    Metadata:\n",
      "      encoder         : Lavc59.18.100 pcm_s16le\n",
      "size=      58kB time=00:00:01.86 bitrate= 256.4kbits/s speed=1.53e+03x    \n",
      "video:0kB audio:58kB subtitle:0kB other streams:0kB global headers:0kB muxing overhead: 0.174731%\n",
      "ffmpeg version 5.0 Copyright (c) 2000-2022 the FFmpeg developers\n",
      "  built with gcc 10.3.0 (GCC)\n",
      "  configuration: --prefix=/home/knoriy/anaconda3/envs/aligner --cc=/home/conda/feedstock_root/build_artifacts/ffmpeg_1646229198505/_build_env/bin/x86_64-conda-linux-gnu-cc --disable-doc --disable-openssl --enable-demuxer=dash --enable-gnutls --enable-gpl --enable-hardcoded-tables --enable-libfreetype --enable-libopenh264 --enable-vaapi --enable-libx264 --enable-libx265 --enable-libaom --enable-libsvtav1 --enable-libxml2 --enable-libvpx --enable-pic --enable-pthreads --enable-shared --disable-static --enable-version3 --enable-zlib --enable-libmp3lame --pkg-config=/home/conda/feedstock_root/build_artifacts/ffmpeg_1646229198505/_build_env/bin/pkg-config\n",
      "  libavutil      57. 17.100 / 57. 17.100\n",
      "  libavcodec     59. 18.100 / 59. 18.100\n",
      "  libavformat    59. 16.100 / 59. 16.100\n",
      "  libavdevice    59.  4.100 / 59.  4.100\n",
      "  libavfilter     8. 24.100 /  8. 24.100\n",
      "  libswscale      6.  4.100 /  6.  4.100\n",
      "  libswresample   4.  3.100 /  4.  3.100\n",
      "  libpostproc    56.  3.100 / 56.  3.100\n",
      "Input #0, flac, from '/home/knoriy/Documents/laion/pps_split/subset/1-4-17_City_Council/1-4-17_City_Council_DOT_mp3_00167.flac':\n",
      "  Metadata:\n",
      "    comment         : Processed by SoX\n",
      "    encoder         : Lavf58.29.100\n",
      "  Duration: 00:00:14.83, start: 0.000000, bitrate: 135 kb/s\n",
      "  Stream #0:0: Audio: flac, 16000 Hz, mono, s16\n",
      "Stream mapping:\n",
      "  Stream #0:0 -> #0:0 (flac (native) -> pcm_s16le (native))\n",
      "Press [q] to stop, [?] for help\n",
      "Output #0, wav, to '/home/knoriy/Documents/laion/pps_split/subset/1-4-17_City_Council/1-4-17_City_Council_DOT_mp3_00167.wav':\n",
      "  Metadata:\n",
      "    ICMT            : Processed by SoX\n",
      "    ISFT            : Lavf59.16.100\n",
      "  Stream #0:0: Audio: pcm_s16le ([1][0][0][0] / 0x0001), 16000 Hz, mono, s16, 256 kb/s\n",
      "    Metadata:\n",
      "      encoder         : Lavc59.18.100 pcm_s16le\n",
      "size=     464kB time=00:00:14.83 bitrate= 256.1kbits/s speed=4.11e+03x    \n",
      "video:0kB audio:463kB subtitle:0kB other streams:0kB global headers:0kB muxing overhead: 0.021915%\n",
      "ffmpeg version 5.0 Copyright (c) 2000-2022 the FFmpeg developers\n",
      "  built with gcc 10.3.0 (GCC)\n",
      "  configuration: --prefix=/home/knoriy/anaconda3/envs/aligner --cc=/home/conda/feedstock_root/build_artifacts/ffmpeg_1646229198505/_build_env/bin/x86_64-conda-linux-gnu-cc --disable-doc --disable-openssl --enable-demuxer=dash --enable-gnutls --enable-gpl --enable-hardcoded-tables --enable-libfreetype --enable-libopenh264 --enable-vaapi --enable-libx264 --enable-libx265 --enable-libaom --enable-libsvtav1 --enable-libxml2 --enable-libvpx --enable-pic --enable-pthreads --enable-shared --disable-static --enable-version3 --enable-zlib --enable-libmp3lame --pkg-config=/home/conda/feedstock_root/build_artifacts/ffmpeg_1646229198505/_build_env/bin/pkg-config\n",
      "  libavutil      57. 17.100 / 57. 17.100\n",
      "  libavcodec     59. 18.100 / 59. 18.100\n",
      "  libavformat    59. 16.100 / 59. 16.100\n",
      "  libavdevice    59.  4.100 / 59.  4.100\n",
      "  libavfilter     8. 24.100 /  8. 24.100\n",
      "  libswscale      6.  4.100 /  6.  4.100\n",
      "  libswresample   4.  3.100 /  4.  3.100\n",
      "  libpostproc    56.  3.100 / 56.  3.100\n",
      "Input #0, flac, from '/home/knoriy/Documents/laion/pps_split/subset/1-4-17_City_Council/1-4-17_City_Council_DOT_mp3_00175.flac':\n",
      "  Metadata:\n",
      "    comment         : Processed by SoX\n",
      "    encoder         : Lavf58.29.100\n",
      "  Duration: 00:00:14.68, start: 0.000000, bitrate: 145 kb/s\n",
      "  Stream #0:0: Audio: flac, 16000 Hz, mono, s16\n",
      "Stream mapping:\n",
      "  Stream #0:0 -> #0:0 (flac (native) -> pcm_s16le (native))\n",
      "Press [q] to stop, [?] for help\n",
      "Output #0, wav, to '/home/knoriy/Documents/laion/pps_split/subset/1-4-17_City_Council/1-4-17_City_Council_DOT_mp3_00175.wav':\n",
      "  Metadata:\n",
      "    ICMT            : Processed by SoX\n",
      "    ISFT            : Lavf59.16.100\n",
      "  Stream #0:0: Audio: pcm_s16le ([1][0][0][0] / 0x0001), 16000 Hz, mono, s16, 256 kb/s\n",
      "    Metadata:\n",
      "      encoder         : Lavc59.18.100 pcm_s16le\n",
      "size=     459kB time=00:00:14.68 bitrate= 256.1kbits/s speed=3.27e+03x    \n",
      "video:0kB audio:459kB subtitle:0kB other streams:0kB global headers:0kB muxing overhead: 0.022139%\n",
      "ffmpeg version 5.0 Copyright (c) 2000-2022 the FFmpeg developers\n",
      "  built with gcc 10.3.0 (GCC)\n",
      "  configuration: --prefix=/home/knoriy/anaconda3/envs/aligner --cc=/home/conda/feedstock_root/build_artifacts/ffmpeg_1646229198505/_build_env/bin/x86_64-conda-linux-gnu-cc --disable-doc --disable-openssl --enable-demuxer=dash --enable-gnutls --enable-gpl --enable-hardcoded-tables --enable-libfreetype --enable-libopenh264 --enable-vaapi --enable-libx264 --enable-libx265 --enable-libaom --enable-libsvtav1 --enable-libxml2 --enable-libvpx --enable-pic --enable-pthreads --enable-shared --disable-static --enable-version3 --enable-zlib --enable-libmp3lame --pkg-config=/home/conda/feedstock_root/build_artifacts/ffmpeg_1646229198505/_build_env/bin/pkg-config\n",
      "  libavutil      57. 17.100 / 57. 17.100\n",
      "  libavcodec     59. 18.100 / 59. 18.100\n",
      "  libavformat    59. 16.100 / 59. 16.100\n",
      "  libavdevice    59.  4.100 / 59.  4.100\n",
      "  libavfilter     8. 24.100 /  8. 24.100\n",
      "  libswscale      6.  4.100 /  6.  4.100\n",
      "  libswresample   4.  3.100 /  4.  3.100\n",
      "  libpostproc    56.  3.100 / 56.  3.100\n",
      "Input #0, flac, from '/home/knoriy/Documents/laion/pps_split/subset/1-3-18_City_Council_Meeting/1-3-18_City_Council_Meeting_DOT_HD_DOT_mp3_00008.flac':\n",
      "  Metadata:\n",
      "    comment         : Processed by SoX\n",
      "    encoder         : Lavf58.29.100\n",
      "  Duration: 00:00:14.77, start: 0.000000, bitrate: 148 kb/s\n",
      "  Stream #0:0: Audio: flac, 16000 Hz, mono, s16\n",
      "Stream mapping:\n",
      "  Stream #0:0 -> #0:0 (flac (native) -> pcm_s16le (native))\n",
      "Press [q] to stop, [?] for help\n",
      "Output #0, wav, to '/home/knoriy/Documents/laion/pps_split/subset/1-3-18_City_Council_Meeting/1-3-18_City_Council_Meeting_DOT_HD_DOT_mp3_00008.wav':\n",
      "  Metadata:\n",
      "    ICMT            : Processed by SoX\n",
      "    ISFT            : Lavf59.16.100\n",
      "  Stream #0:0: Audio: pcm_s16le ([1][0][0][0] / 0x0001), 16000 Hz, mono, s16, 256 kb/s\n",
      "    Metadata:\n",
      "      encoder         : Lavc59.18.100 pcm_s16le\n",
      "size=     462kB time=00:00:14.77 bitrate= 256.1kbits/s speed=3.39e+03x    \n",
      "video:0kB audio:462kB subtitle:0kB other streams:0kB global headers:0kB muxing overhead: 0.022004%\n",
      "ffmpeg version 5.0 Copyright (c) 2000-2022 the FFmpeg developers\n",
      "  built with gcc 10.3.0 (GCC)\n",
      "  configuration: --prefix=/home/knoriy/anaconda3/envs/aligner --cc=/home/conda/feedstock_root/build_artifacts/ffmpeg_1646229198505/_build_env/bin/x86_64-conda-linux-gnu-cc --disable-doc --disable-openssl --enable-demuxer=dash --enable-gnutls --enable-gpl --enable-hardcoded-tables --enable-libfreetype --enable-libopenh264 --enable-vaapi --enable-libx264 --enable-libx265 --enable-libaom --enable-libsvtav1 --enable-libxml2 --enable-libvpx --enable-pic --enable-pthreads --enable-shared --disable-static --enable-version3 --enable-zlib --enable-libmp3lame --pkg-config=/home/conda/feedstock_root/build_artifacts/ffmpeg_1646229198505/_build_env/bin/pkg-config\n",
      "  libavutil      57. 17.100 / 57. 17.100\n",
      "  libavcodec     59. 18.100 / 59. 18.100\n",
      "  libavformat    59. 16.100 / 59. 16.100\n",
      "  libavdevice    59.  4.100 / 59.  4.100\n",
      "  libavfilter     8. 24.100 /  8. 24.100\n",
      "  libswscale      6.  4.100 /  6.  4.100\n",
      "  libswresample   4.  3.100 /  4.  3.100\n",
      "  libpostproc    56.  3.100 / 56.  3.100\n",
      "Input #0, flac, from '/home/knoriy/Documents/laion/pps_split/subset/1-6-16_City_Council/1-6-16_City_Council_DOT_mp3_00034.flac':\n",
      "  Metadata:\n",
      "    comment         : Processed by SoX\n",
      "    encoder         : Lavf58.29.100\n",
      "  Duration: 00:00:14.95, start: 0.000000, bitrate: 148 kb/s\n",
      "  Stream #0:0: Audio: flac, 16000 Hz, mono, s16\n",
      "Stream mapping:\n",
      "  Stream #0:0 -> #0:0 (flac (native) -> pcm_s16le (native))\n",
      "Press [q] to stop, [?] for help\n",
      "Output #0, wav, to '/home/knoriy/Documents/laion/pps_split/subset/1-6-16_City_Council/1-6-16_City_Council_DOT_mp3_00034.wav':\n",
      "  Metadata:\n",
      "    ICMT            : Processed by SoX\n",
      "    ISFT            : Lavf59.16.100\n",
      "  Stream #0:0: Audio: pcm_s16le ([1][0][0][0] / 0x0001), 16000 Hz, mono, s16, 256 kb/s\n",
      "    Metadata:\n",
      "      encoder         : Lavc59.18.100 pcm_s16le\n",
      "size=     467kB time=00:00:14.95 bitrate= 256.1kbits/s speed=3.15e+03x    \n",
      "video:0kB audio:467kB subtitle:0kB other streams:0kB global headers:0kB muxing overhead: 0.021739%\n",
      "ffmpeg version 5.0 Copyright (c) 2000-2022 the FFmpeg developers\n",
      "  built with gcc 10.3.0 (GCC)\n",
      "  configuration: --prefix=/home/knoriy/anaconda3/envs/aligner --cc=/home/conda/feedstock_root/build_artifacts/ffmpeg_1646229198505/_build_env/bin/x86_64-conda-linux-gnu-cc --disable-doc --disable-openssl --enable-demuxer=dash --enable-gnutls --enable-gpl --enable-hardcoded-tables --enable-libfreetype --enable-libopenh264 --enable-vaapi --enable-libx264 --enable-libx265 --enable-libaom --enable-libsvtav1 --enable-libxml2 --enable-libvpx --enable-pic --enable-pthreads --enable-shared --disable-static --enable-version3 --enable-zlib --enable-libmp3lame --pkg-config=/home/conda/feedstock_root/build_artifacts/ffmpeg_1646229198505/_build_env/bin/pkg-config\n",
      "  libavutil      57. 17.100 / 57. 17.100\n",
      "  libavcodec     59. 18.100 / 59. 18.100\n",
      "  libavformat    59. 16.100 / 59. 16.100\n",
      "  libavdevice    59.  4.100 / 59.  4.100\n",
      "  libavfilter     8. 24.100 /  8. 24.100\n",
      "  libswscale      6.  4.100 /  6.  4.100\n",
      "  libswresample   4.  3.100 /  4.  3.100\n",
      "  libpostproc    56.  3.100 / 56.  3.100\n",
      "Input #0, flac, from '/home/knoriy/Documents/laion/pps_split/subset/1-6-16_City_Council/1-6-16_City_Council_DOT_mp3_00057.flac':\n",
      "  Metadata:\n",
      "    comment         : Processed by SoX\n",
      "    encoder         : Lavf58.29.100\n",
      "  Duration: 00:00:14.65, start: 0.000000, bitrate: 135 kb/s\n",
      "  Stream #0:0: Audio: flac, 16000 Hz, mono, s16\n",
      "Stream mapping:\n",
      "  Stream #0:0 -> #0:0 (flac (native) -> pcm_s16le (native))\n",
      "Press [q] to stop, [?] for help\n",
      "Output #0, wav, to '/home/knoriy/Documents/laion/pps_split/subset/1-6-16_City_Council/1-6-16_City_Council_DOT_mp3_00057.wav':\n",
      "  Metadata:\n",
      "    ICMT            : Processed by SoX\n",
      "    ISFT            : Lavf59.16.100\n",
      "  Stream #0:0: Audio: pcm_s16le ([1][0][0][0] / 0x0001), 16000 Hz, mono, s16, 256 kb/s\n",
      "    Metadata:\n",
      "      encoder         : Lavc59.18.100 pcm_s16le\n",
      "size=     458kB time=00:00:14.65 bitrate= 256.1kbits/s speed=4.49e+03x    \n",
      "video:0kB audio:458kB subtitle:0kB other streams:0kB global headers:0kB muxing overhead: 0.022184%\n",
      "ffmpeg version 5.0 Copyright (c) 2000-2022 the FFmpeg developers\n",
      "  built with gcc 10.3.0 (GCC)\n",
      "  configuration: --prefix=/home/knoriy/anaconda3/envs/aligner --cc=/home/conda/feedstock_root/build_artifacts/ffmpeg_1646229198505/_build_env/bin/x86_64-conda-linux-gnu-cc --disable-doc --disable-openssl --enable-demuxer=dash --enable-gnutls --enable-gpl --enable-hardcoded-tables --enable-libfreetype --enable-libopenh264 --enable-vaapi --enable-libx264 --enable-libx265 --enable-libaom --enable-libsvtav1 --enable-libxml2 --enable-libvpx --enable-pic --enable-pthreads --enable-shared --disable-static --enable-version3 --enable-zlib --enable-libmp3lame --pkg-config=/home/conda/feedstock_root/build_artifacts/ffmpeg_1646229198505/_build_env/bin/pkg-config\n",
      "  libavutil      57. 17.100 / 57. 17.100\n",
      "  libavcodec     59. 18.100 / 59. 18.100\n",
      "  libavformat    59. 16.100 / 59. 16.100\n",
      "  libavdevice    59.  4.100 / 59.  4.100\n",
      "  libavfilter     8. 24.100 /  8. 24.100\n",
      "  libswscale      6.  4.100 /  6.  4.100\n",
      "  libswresample   4.  3.100 /  4.  3.100\n",
      "  libpostproc    56.  3.100 / 56.  3.100\n",
      "Input #0, flac, from '/home/knoriy/Documents/laion/pps_split/subset/1-6-16_City_Council/1-6-16_City_Council_DOT_mp3_00131.flac':\n",
      "  Metadata:\n",
      "    comment         : Processed by SoX\n",
      "    encoder         : Lavf58.29.100\n",
      "  Duration: 00:00:14.94, start: 0.000000, bitrate: 138 kb/s\n",
      "  Stream #0:0: Audio: flac, 16000 Hz, mono, s16\n",
      "Stream mapping:\n",
      "  Stream #0:0 -> #0:0 (flac (native) -> pcm_s16le (native))\n",
      "Press [q] to stop, [?] for help\n",
      "Output #0, wav, to '/home/knoriy/Documents/laion/pps_split/subset/1-6-16_City_Council/1-6-16_City_Council_DOT_mp3_00131.wav':\n",
      "  Metadata:\n",
      "    ICMT            : Processed by SoX\n",
      "    ISFT            : Lavf59.16.100\n",
      "  Stream #0:0: Audio: pcm_s16le ([1][0][0][0] / 0x0001), 16000 Hz, mono, s16, 256 kb/s\n",
      "    Metadata:\n",
      "      encoder         : Lavc59.18.100 pcm_s16le\n",
      "size=     467kB time=00:00:14.94 bitrate= 256.1kbits/s speed=4.03e+03x    \n",
      "video:0kB audio:467kB subtitle:0kB other streams:0kB global headers:0kB muxing overhead: 0.021754%\n",
      "Converting .flac files to .wav: 7it [00:00, 66.93it/s]ffmpeg version 5.0 Copyright (c) 2000-2022 the FFmpeg developers\n",
      "  built with gcc 10.3.0 (GCC)\n",
      "  configuration: --prefix=/home/knoriy/anaconda3/envs/aligner --cc=/home/conda/feedstock_root/build_artifacts/ffmpeg_1646229198505/_build_env/bin/x86_64-conda-linux-gnu-cc --disable-doc --disable-openssl --enable-demuxer=dash --enable-gnutls --enable-gpl --enable-hardcoded-tables --enable-libfreetype --enable-libopenh264 --enable-vaapi --enable-libx264 --enable-libx265 --enable-libaom --enable-libsvtav1 --enable-libxml2 --enable-libvpx --enable-pic --enable-pthreads --enable-shared --disable-static --enable-version3 --enable-zlib --enable-libmp3lame --pkg-config=/home/conda/feedstock_root/build_artifacts/ffmpeg_1646229198505/_build_env/bin/pkg-config\n",
      "  libavutil      57. 17.100 / 57. 17.100\n",
      "  libavcodec     59. 18.100 / 59. 18.100\n",
      "  libavformat    59. 16.100 / 59. 16.100\n",
      "  libavdevice    59.  4.100 / 59.  4.100\n",
      "  libavfilter     8. 24.100 /  8. 24.100\n",
      "  libswscale      6.  4.100 /  6.  4.100\n",
      "  libswresample   4.  3.100 /  4.  3.100\n",
      "  libpostproc    56.  3.100 / 56.  3.100\n",
      "Input #0, flac, from '/home/knoriy/Documents/laion/pps_split/subset/1-12-16_Early_Bird_Breakfast/1-12-16_Early_Bird_Breakfast_DOT_mp3_00038.flac':\n",
      "  Metadata:\n",
      "    comment         : Processed by SoX\n",
      "    encoder         : Lavf58.29.100\n",
      "  Duration: 00:00:14.89, start: 0.000000, bitrate: 161 kb/s\n",
      "  Stream #0:0: Audio: flac, 16000 Hz, mono, s16\n",
      "Stream mapping:\n",
      "  Stream #0:0 -> #0:0 (flac (native) -> pcm_s16le (native))\n",
      "Press [q] to stop, [?] for help\n",
      "Output #0, wav, to '/home/knoriy/Documents/laion/pps_split/subset/1-12-16_Early_Bird_Breakfast/1-12-16_Early_Bird_Breakfast_DOT_mp3_00038.wav':\n",
      "  Metadata:\n",
      "    ICMT            : Processed by SoX\n",
      "    ISFT            : Lavf59.16.100\n",
      "  Stream #0:0: Audio: pcm_s16le ([1][0][0][0] / 0x0001), 16000 Hz, mono, s16, 256 kb/s\n",
      "    Metadata:\n",
      "      encoder         : Lavc59.18.100 pcm_s16le\n",
      "size=     465kB time=00:00:14.89 bitrate= 256.1kbits/s speed=3.82e+03x    \n",
      "video:0kB audio:465kB subtitle:0kB other streams:0kB global headers:0kB muxing overhead: 0.021827%\n",
      "ffmpeg version 5.0 Copyright (c) 2000-2022 the FFmpeg developers\n",
      "  built with gcc 10.3.0 (GCC)\n",
      "  configuration: --prefix=/home/knoriy/anaconda3/envs/aligner --cc=/home/conda/feedstock_root/build_artifacts/ffmpeg_1646229198505/_build_env/bin/x86_64-conda-linux-gnu-cc --disable-doc --disable-openssl --enable-demuxer=dash --enable-gnutls --enable-gpl --enable-hardcoded-tables --enable-libfreetype --enable-libopenh264 --enable-vaapi --enable-libx264 --enable-libx265 --enable-libaom --enable-libsvtav1 --enable-libxml2 --enable-libvpx --enable-pic --enable-pthreads --enable-shared --disable-static --enable-version3 --enable-zlib --enable-libmp3lame --pkg-config=/home/conda/feedstock_root/build_artifacts/ffmpeg_1646229198505/_build_env/bin/pkg-config\n",
      "  libavutil      57. 17.100 / 57. 17.100\n",
      "  libavcodec     59. 18.100 / 59. 18.100\n",
      "  libavformat    59. 16.100 / 59. 16.100\n",
      "  libavdevice    59.  4.100 / 59.  4.100\n",
      "  libavfilter     8. 24.100 /  8. 24.100\n",
      "  libswscale      6.  4.100 /  6.  4.100\n",
      "  libswresample   4.  3.100 /  4.  3.100\n",
      "  libpostproc    56.  3.100 / 56.  3.100\n",
      "Input #0, flac, from '/home/knoriy/Documents/laion/pps_split/subset/1-12-16_Early_Bird_Breakfast/1-12-16_Early_Bird_Breakfast_DOT_mp3_00139.flac':\n",
      "  Metadata:\n",
      "    comment         : Processed by SoX\n",
      "    encoder         : Lavf58.29.100\n",
      "  Duration: 00:00:14.89, start: 0.000000, bitrate: 161 kb/s\n",
      "  Stream #0:0: Audio: flac, 16000 Hz, mono, s16\n",
      "Stream mapping:\n",
      "  Stream #0:0 -> #0:0 (flac (native) -> pcm_s16le (native))\n",
      "Press [q] to stop, [?] for help\n",
      "Output #0, wav, to '/home/knoriy/Documents/laion/pps_split/subset/1-12-16_Early_Bird_Breakfast/1-12-16_Early_Bird_Breakfast_DOT_mp3_00139.wav':\n",
      "  Metadata:\n",
      "    ICMT            : Processed by SoX\n",
      "    ISFT            : Lavf59.16.100\n",
      "  Stream #0:0: Audio: pcm_s16le ([1][0][0][0] / 0x0001), 16000 Hz, mono, s16, 256 kb/s\n",
      "    Metadata:\n",
      "      encoder         : Lavc59.18.100 pcm_s16le\n",
      "size=     465kB time=00:00:14.89 bitrate= 256.1kbits/s speed=3.79e+03x    \n",
      "video:0kB audio:465kB subtitle:0kB other streams:0kB global headers:0kB muxing overhead: 0.021827%\n",
      "ffmpeg version 5.0 Copyright (c) 2000-2022 the FFmpeg developers\n",
      "  built with gcc 10.3.0 (GCC)\n",
      "  configuration: --prefix=/home/knoriy/anaconda3/envs/aligner --cc=/home/conda/feedstock_root/build_artifacts/ffmpeg_1646229198505/_build_env/bin/x86_64-conda-linux-gnu-cc --disable-doc --disable-openssl --enable-demuxer=dash --enable-gnutls --enable-gpl --enable-hardcoded-tables --enable-libfreetype --enable-libopenh264 --enable-vaapi --enable-libx264 --enable-libx265 --enable-libaom --enable-libsvtav1 --enable-libxml2 --enable-libvpx --enable-pic --enable-pthreads --enable-shared --disable-static --enable-version3 --enable-zlib --enable-libmp3lame --pkg-config=/home/conda/feedstock_root/build_artifacts/ffmpeg_1646229198505/_build_env/bin/pkg-config\n",
      "  libavutil      57. 17.100 / 57. 17.100\n",
      "  libavcodec     59. 18.100 / 59. 18.100\n",
      "  libavformat    59. 16.100 / 59. 16.100\n",
      "  libavdevice    59.  4.100 / 59.  4.100\n",
      "  libavfilter     8. 24.100 /  8. 24.100\n",
      "  libswscale      6.  4.100 /  6.  4.100\n",
      "  libswresample   4.  3.100 /  4.  3.100\n",
      "  libpostproc    56.  3.100 / 56.  3.100\n",
      "Input #0, flac, from '/home/knoriy/Documents/laion/pps_split/subset/1-12-16_Early_Bird_Breakfast/1-12-16_Early_Bird_Breakfast_DOT_mp3_00143.flac':\n",
      "  Metadata:\n",
      "    comment         : Processed by SoX\n",
      "    encoder         : Lavf58.29.100\n",
      "  Duration: 00:00:14.68, start: 0.000000, bitrate: 158 kb/s\n",
      "  Stream #0:0: Audio: flac, 16000 Hz, mono, s16\n",
      "Stream mapping:\n",
      "  Stream #0:0 -> #0:0 (flac (native) -> pcm_s16le (native))\n",
      "Press [q] to stop, [?] for help\n",
      "Output #0, wav, to '/home/knoriy/Documents/laion/pps_split/subset/1-12-16_Early_Bird_Breakfast/1-12-16_Early_Bird_Breakfast_DOT_mp3_00143.wav':\n",
      "  Metadata:\n",
      "    ICMT            : Processed by SoX\n",
      "    ISFT            : Lavf59.16.100\n",
      "  Stream #0:0: Audio: pcm_s16le ([1][0][0][0] / 0x0001), 16000 Hz, mono, s16, 256 kb/s\n",
      "    Metadata:\n",
      "      encoder         : Lavc59.18.100 pcm_s16le\n",
      "size=     459kB time=00:00:14.68 bitrate= 256.1kbits/s speed=3.97e+03x    \n",
      "video:0kB audio:459kB subtitle:0kB other streams:0kB global headers:0kB muxing overhead: 0.022139%\n",
      "ffmpeg version 5.0 Copyright (c) 2000-2022 the FFmpeg developers\n",
      "  built with gcc 10.3.0 (GCC)\n",
      "  configuration: --prefix=/home/knoriy/anaconda3/envs/aligner --cc=/home/conda/feedstock_root/build_artifacts/ffmpeg_1646229198505/_build_env/bin/x86_64-conda-linux-gnu-cc --disable-doc --disable-openssl --enable-demuxer=dash --enable-gnutls --enable-gpl --enable-hardcoded-tables --enable-libfreetype --enable-libopenh264 --enable-vaapi --enable-libx264 --enable-libx265 --enable-libaom --enable-libsvtav1 --enable-libxml2 --enable-libvpx --enable-pic --enable-pthreads --enable-shared --disable-static --enable-version3 --enable-zlib --enable-libmp3lame --pkg-config=/home/conda/feedstock_root/build_artifacts/ffmpeg_1646229198505/_build_env/bin/pkg-config\n",
      "  libavutil      57. 17.100 / 57. 17.100\n",
      "  libavcodec     59. 18.100 / 59. 18.100\n",
      "  libavformat    59. 16.100 / 59. 16.100\n",
      "  libavdevice    59.  4.100 / 59.  4.100\n",
      "  libavfilter     8. 24.100 /  8. 24.100\n",
      "  libswscale      6.  4.100 /  6.  4.100\n",
      "  libswresample   4.  3.100 /  4.  3.100\n",
      "  libpostproc    56.  3.100 / 56.  3.100\n",
      "Input #0, flac, from '/home/knoriy/Documents/laion/pps_split/subset/1-5-16_Historic_District/1-5-16_Historic_District_DOT_mp3_00000.flac':\n",
      "  Metadata:\n",
      "    comment         : Processed by SoX\n",
      "    encoder         : Lavf58.29.100\n",
      "  Duration: 00:00:14.77, start: 0.000000, bitrate: 140 kb/s\n",
      "  Stream #0:0: Audio: flac, 16000 Hz, mono, s16\n",
      "Stream mapping:\n",
      "  Stream #0:0 -> #0:0 (flac (native) -> pcm_s16le (native))\n",
      "Press [q] to stop, [?] for help\n",
      "Output #0, wav, to '/home/knoriy/Documents/laion/pps_split/subset/1-5-16_Historic_District/1-5-16_Historic_District_DOT_mp3_00000.wav':\n",
      "  Metadata:\n",
      "    ICMT            : Processed by SoX\n",
      "    ISFT            : Lavf59.16.100\n",
      "  Stream #0:0: Audio: pcm_s16le ([1][0][0][0] / 0x0001), 16000 Hz, mono, s16, 256 kb/s\n",
      "    Metadata:\n",
      "      encoder         : Lavc59.18.100 pcm_s16le\n",
      "size=     462kB time=00:00:14.77 bitrate= 256.1kbits/s speed=3.9e+03x    \n",
      "video:0kB audio:462kB subtitle:0kB other streams:0kB global headers:0kB muxing overhead: 0.022004%\n",
      "ffmpeg version 5.0 Copyright (c) 2000-2022 the FFmpeg developers\n",
      "  built with gcc 10.3.0 (GCC)\n",
      "  configuration: --prefix=/home/knoriy/anaconda3/envs/aligner --cc=/home/conda/feedstock_root/build_artifacts/ffmpeg_1646229198505/_build_env/bin/x86_64-conda-linux-gnu-cc --disable-doc --disable-openssl --enable-demuxer=dash --enable-gnutls --enable-gpl --enable-hardcoded-tables --enable-libfreetype --enable-libopenh264 --enable-vaapi --enable-libx264 --enable-libx265 --enable-libaom --enable-libsvtav1 --enable-libxml2 --enable-libvpx --enable-pic --enable-pthreads --enable-shared --disable-static --enable-version3 --enable-zlib --enable-libmp3lame --pkg-config=/home/conda/feedstock_root/build_artifacts/ffmpeg_1646229198505/_build_env/bin/pkg-config\n",
      "  libavutil      57. 17.100 / 57. 17.100\n",
      "  libavcodec     59. 18.100 / 59. 18.100\n",
      "  libavformat    59. 16.100 / 59. 16.100\n",
      "  libavdevice    59.  4.100 / 59.  4.100\n",
      "  libavfilter     8. 24.100 /  8. 24.100\n",
      "  libswscale      6.  4.100 /  6.  4.100\n",
      "  libswresample   4.  3.100 /  4.  3.100\n",
      "  libpostproc    56.  3.100 / 56.  3.100\n",
      "Input #0, flac, from '/home/knoriy/Documents/laion/pps_split/subset/1-5-16_Historic_District/1-5-16_Historic_District_DOT_mp3_00060.flac':\n",
      "  Metadata:\n",
      "    comment         : Processed by SoX\n",
      "    encoder         : Lavf58.29.100\n",
      "  Duration: 00:00:14.89, start: 0.000000, bitrate: 145 kb/s\n",
      "  Stream #0:0: Audio: flac, 16000 Hz, mono, s16\n",
      "Stream mapping:\n",
      "  Stream #0:0 -> #0:0 (flac (native) -> pcm_s16le (native))\n",
      "Press [q] to stop, [?] for help\n",
      "Output #0, wav, to '/home/knoriy/Documents/laion/pps_split/subset/1-5-16_Historic_District/1-5-16_Historic_District_DOT_mp3_00060.wav':\n",
      "  Metadata:\n",
      "    ICMT            : Processed by SoX\n",
      "    ISFT            : Lavf59.16.100\n",
      "  Stream #0:0: Audio: pcm_s16le ([1][0][0][0] / 0x0001), 16000 Hz, mono, s16, 256 kb/s\n",
      "    Metadata:\n",
      "      encoder         : Lavc59.18.100 pcm_s16le\n",
      "size=     465kB time=00:00:14.89 bitrate= 256.1kbits/s speed=4.24e+03x    \n",
      "video:0kB audio:465kB subtitle:0kB other streams:0kB global headers:0kB muxing overhead: 0.021827%\n",
      "ffmpeg version 5.0 Copyright (c) 2000-2022 the FFmpeg developers\n",
      "  built with gcc 10.3.0 (GCC)\n",
      "  configuration: --prefix=/home/knoriy/anaconda3/envs/aligner --cc=/home/conda/feedstock_root/build_artifacts/ffmpeg_1646229198505/_build_env/bin/x86_64-conda-linux-gnu-cc --disable-doc --disable-openssl --enable-demuxer=dash --enable-gnutls --enable-gpl --enable-hardcoded-tables --enable-libfreetype --enable-libopenh264 --enable-vaapi --enable-libx264 --enable-libx265 --enable-libaom --enable-libsvtav1 --enable-libxml2 --enable-libvpx --enable-pic --enable-pthreads --enable-shared --disable-static --enable-version3 --enable-zlib --enable-libmp3lame --pkg-config=/home/conda/feedstock_root/build_artifacts/ffmpeg_1646229198505/_build_env/bin/pkg-config\n",
      "  libavutil      57. 17.100 / 57. 17.100\n",
      "  libavcodec     59. 18.100 / 59. 18.100\n",
      "  libavformat    59. 16.100 / 59. 16.100\n",
      "  libavdevice    59.  4.100 / 59.  4.100\n",
      "  libavfilter     8. 24.100 /  8. 24.100\n",
      "  libswscale      6.  4.100 /  6.  4.100\n",
      "  libswresample   4.  3.100 /  4.  3.100\n",
      "  libpostproc    56.  3.100 / 56.  3.100\n",
      "Input #0, flac, from '/home/knoriy/Documents/laion/pps_split/subset/1-5-16_Historic_District/1-5-16_Historic_District_DOT_mp3_00091.flac':\n",
      "  Metadata:\n",
      "    comment         : Processed by SoX\n",
      "    encoder         : Lavf58.29.100\n",
      "  Duration: 00:00:14.95, start: 0.000000, bitrate: 130 kb/s\n",
      "  Stream #0:0: Audio: flac, 16000 Hz, mono, s16\n",
      "Stream mapping:\n",
      "  Stream #0:0 -> #0:0 (flac (native) -> pcm_s16le (native))\n",
      "Press [q] to stop, [?] for help\n",
      "Output #0, wav, to '/home/knoriy/Documents/laion/pps_split/subset/1-5-16_Historic_District/1-5-16_Historic_District_DOT_mp3_00091.wav':\n",
      "  Metadata:\n",
      "    ICMT            : Processed by SoX\n",
      "    ISFT            : Lavf59.16.100\n",
      "  Stream #0:0: Audio: pcm_s16le ([1][0][0][0] / 0x0001), 16000 Hz, mono, s16, 256 kb/s\n",
      "    Metadata:\n",
      "      encoder         : Lavc59.18.100 pcm_s16le\n",
      "size=     467kB time=00:00:14.95 bitrate= 256.1kbits/s speed=3.78e+03x    \n",
      "video:0kB audio:467kB subtitle:0kB other streams:0kB global headers:0kB muxing overhead: 0.021739%\n",
      "ffmpeg version 5.0 Copyright (c) 2000-2022 the FFmpeg developers\n",
      "  built with gcc 10.3.0 (GCC)\n",
      "  configuration: --prefix=/home/knoriy/anaconda3/envs/aligner --cc=/home/conda/feedstock_root/build_artifacts/ffmpeg_1646229198505/_build_env/bin/x86_64-conda-linux-gnu-cc --disable-doc --disable-openssl --enable-demuxer=dash --enable-gnutls --enable-gpl --enable-hardcoded-tables --enable-libfreetype --enable-libopenh264 --enable-vaapi --enable-libx264 --enable-libx265 --enable-libaom --enable-libsvtav1 --enable-libxml2 --enable-libvpx --enable-pic --enable-pthreads --enable-shared --disable-static --enable-version3 --enable-zlib --enable-libmp3lame --pkg-config=/home/conda/feedstock_root/build_artifacts/ffmpeg_1646229198505/_build_env/bin/pkg-config\n",
      "  libavutil      57. 17.100 / 57. 17.100\n",
      "  libavcodec     59. 18.100 / 59. 18.100\n",
      "  libavformat    59. 16.100 / 59. 16.100\n",
      "  libavdevice    59.  4.100 / 59.  4.100\n",
      "  libavfilter     8. 24.100 /  8. 24.100\n",
      "  libswscale      6.  4.100 /  6.  4.100\n",
      "  libswresample   4.  3.100 /  4.  3.100\n",
      "  libpostproc    56.  3.100 / 56.  3.100\n",
      "Input #0, flac, from '/home/knoriy/Documents/laion/pps_split/subset/1-5-16_Historic_District/1-5-16_Historic_District_DOT_mp3_00124.flac':\n",
      "  Metadata:\n",
      "    comment         : Processed by SoX\n",
      "    encoder         : Lavf58.29.100\n",
      "  Duration: 00:00:04.26, start: 0.000000, bitrate: 143 kb/s\n",
      "  Stream #0:0: Audio: flac, 16000 Hz, mono, s16\n",
      "Stream mapping:\n",
      "  Stream #0:0 -> #0:0 (flac (native) -> pcm_s16le (native))\n",
      "Press [q] to stop, [?] for help\n",
      "Output #0, wav, to '/home/knoriy/Documents/laion/pps_split/subset/1-5-16_Historic_District/1-5-16_Historic_District_DOT_mp3_00124.wav':\n",
      "  Metadata:\n",
      "    ICMT            : Processed by SoX\n",
      "    ISFT            : Lavf59.16.100\n",
      "  Stream #0:0: Audio: pcm_s16le ([1][0][0][0] / 0x0001), 16000 Hz, mono, s16, 256 kb/s\n",
      "    Metadata:\n",
      "      encoder         : Lavc59.18.100 pcm_s16le\n",
      "size=     133kB time=00:00:04.26 bitrate= 256.2kbits/s speed=1.98e+03x    \n",
      "video:0kB audio:133kB subtitle:0kB other streams:0kB global headers:0kB muxing overhead: 0.076291%\n",
      "Converting .flac files to .wav: 14it [00:00, 64.60it/s]ffmpeg version 5.0 Copyright (c) 2000-2022 the FFmpeg developers\n",
      "  built with gcc 10.3.0 (GCC)\n",
      "  configuration: --prefix=/home/knoriy/anaconda3/envs/aligner --cc=/home/conda/feedstock_root/build_artifacts/ffmpeg_1646229198505/_build_env/bin/x86_64-conda-linux-gnu-cc --disable-doc --disable-openssl --enable-demuxer=dash --enable-gnutls --enable-gpl --enable-hardcoded-tables --enable-libfreetype --enable-libopenh264 --enable-vaapi --enable-libx264 --enable-libx265 --enable-libaom --enable-libsvtav1 --enable-libxml2 --enable-libvpx --enable-pic --enable-pthreads --enable-shared --disable-static --enable-version3 --enable-zlib --enable-libmp3lame --pkg-config=/home/conda/feedstock_root/build_artifacts/ffmpeg_1646229198505/_build_env/bin/pkg-config\n",
      "  libavutil      57. 17.100 / 57. 17.100\n",
      "  libavcodec     59. 18.100 / 59. 18.100\n",
      "  libavformat    59. 16.100 / 59. 16.100\n",
      "  libavdevice    59.  4.100 / 59.  4.100\n",
      "  libavfilter     8. 24.100 /  8. 24.100\n",
      "  libswscale      6.  4.100 /  6.  4.100\n",
      "  libswresample   4.  3.100 /  4.  3.100\n",
      "  libpostproc    56.  3.100 / 56.  3.100\n",
      "Input #0, flac, from '/home/knoriy/Documents/laion/pps_split/subset/1-5-16_Historic_District/1-5-16_Historic_District_DOT_mp3_00260.flac':\n",
      "  Metadata:\n",
      "    comment         : Processed by SoX\n",
      "    encoder         : Lavf58.29.100\n",
      "  Duration: 00:00:14.59, start: 0.000000, bitrate: 120 kb/s\n",
      "  Stream #0:0: Audio: flac, 16000 Hz, mono, s16\n",
      "Stream mapping:\n",
      "  Stream #0:0 -> #0:0 (flac (native) -> pcm_s16le (native))\n",
      "Press [q] to stop, [?] for help\n",
      "Output #0, wav, to '/home/knoriy/Documents/laion/pps_split/subset/1-5-16_Historic_District/1-5-16_Historic_District_DOT_mp3_00260.wav':\n",
      "  Metadata:\n",
      "    ICMT            : Processed by SoX\n",
      "    ISFT            : Lavf59.16.100\n",
      "  Stream #0:0: Audio: pcm_s16le ([1][0][0][0] / 0x0001), 16000 Hz, mono, s16, 256 kb/s\n",
      "    Metadata:\n",
      "      encoder         : Lavc59.18.100 pcm_s16le\n",
      "size=     456kB time=00:00:14.59 bitrate= 256.1kbits/s speed=3.27e+03x    \n",
      "video:0kB audio:456kB subtitle:0kB other streams:0kB global headers:0kB muxing overhead: 0.022276%\n",
      "Converting .flac files to .wav: 15it [00:00, 64.20it/s]\n"
     ]
    },
    {
     "name": "stdout",
     "output_type": "stream",
     "text": [
      "INFO - Setting up corpus information...\n",
      "INFO - Loading corpus from source files...\n"
     ]
    },
    {
     "name": "stderr",
     "output_type": "stream",
     "text": [
      "100%|██████████| 15/15 [00:01<00:00, 14.80it/s]\n"
     ]
    },
    {
     "name": "stdout",
     "output_type": "stream",
     "text": [
      "INFO - Number of speakers in corpus: 5, average number of utterances per speaker: 3.0\n",
      "INFO - Setting up training data...\n",
      "INFO - Generating base features (mfcc)...\n",
      "INFO - Generating MFCCs...\n"
     ]
    },
    {
     "name": "stderr",
     "output_type": "stream",
     "text": [
      "100%|██████████| 15/15 [00:01<00:00, 12.27it/s]\n",
      "  0%|          | 0/15 [00:00<?, ?it/s]"
     ]
    },
    {
     "name": "stdout",
     "output_type": "stream",
     "text": [
      "INFO - Calculating CMVN...\n",
      "INFO - Compiling training graphs...\n"
     ]
    },
    {
     "name": "stderr",
     "output_type": "stream",
     "text": [
      "100%|██████████| 15/15 [00:01<00:00, 13.69it/s]\n",
      "  0%|          | 0/15 [00:00<?, ?it/s]"
     ]
    },
    {
     "name": "stdout",
     "output_type": "stream",
     "text": [
      "INFO - Performing first-pass alignment...\n",
      "INFO - Generating alignments...\n"
     ]
    },
    {
     "name": "stderr",
     "output_type": "stream",
     "text": [
      "100%|██████████| 15/15 [00:01<00:00, 10.59it/s]\n"
     ]
    },
    {
     "name": "stdout",
     "output_type": "stream",
     "text": [
      "INFO - Collecting word alignments from alignment lattices...\n"
     ]
    },
    {
     "name": "stderr",
     "output_type": "stream",
     "text": [
      "100%|██████████| 15/15 [00:01<00:00, 13.89it/s]\n",
      "  0%|          | 0/15 [00:00<?, ?it/s]"
     ]
    },
    {
     "name": "stdout",
     "output_type": "stream",
     "text": [
      "INFO - Collecting phone alignments from alignment lattices...\n"
     ]
    },
    {
     "name": "stderr",
     "output_type": "stream",
     "text": [
      "100%|██████████| 15/15 [00:01<00:00, 12.08it/s]\n",
      "  0%|          | 0/15 [00:00<?, ?it/s]"
     ]
    },
    {
     "name": "stdout",
     "output_type": "stream",
     "text": [
      "INFO - Exporting TextGrids to /home/knoriy/Documents/MFA/subset_pretrained_aligner/pretrained_aligner/textgrids...\n"
     ]
    },
    {
     "name": "stderr",
     "output_type": "stream",
     "text": [
      "100%|██████████| 15/15 [00:01<00:00, 14.04it/s]\n"
     ]
    },
    {
     "name": "stdout",
     "output_type": "stream",
     "text": [
      "INFO - Finished exporting TextGrids to\n",
      "                /home/knoriy/Documents/MFA/subset_pretrained_aligner/pretrained_aligner/textgrids!\n",
      "INFO - Done! Everything took 12.318682432174683 seconds\n"
     ]
    },
    {
     "name": "stderr",
     "output_type": "stream",
     "text": [
      "spliting flac files into 5-10 seconds:   0%|          | 0/15 [00:00<?, ?it/s]ffmpeg version 5.0 Copyright (c) 2000-2022 the FFmpeg developers\n",
      "  built with gcc 10.3.0 (GCC)\n",
      "  configuration: --prefix=/home/knoriy/anaconda3/envs/aligner --cc=/home/conda/feedstock_root/build_artifacts/ffmpeg_1646229198505/_build_env/bin/x86_64-conda-linux-gnu-cc --disable-doc --disable-openssl --enable-demuxer=dash --enable-gnutls --enable-gpl --enable-hardcoded-tables --enable-libfreetype --enable-libopenh264 --enable-vaapi --enable-libx264 --enable-libx265 --enable-libaom --enable-libsvtav1 --enable-libxml2 --enable-libvpx --enable-pic --enable-pthreads --enable-shared --disable-static --enable-version3 --enable-zlib --enable-libmp3lame --pkg-config=/home/conda/feedstock_root/build_artifacts/ffmpeg_1646229198505/_build_env/bin/pkg-config\n",
      "  libavutil      57. 17.100 / 57. 17.100\n",
      "  libavcodec     59. 18.100 / 59. 18.100\n",
      "  libavformat    59. 16.100 / 59. 16.100\n",
      "  libavdevice    59.  4.100 / 59.  4.100\n",
      "  libavfilter     8. 24.100 /  8. 24.100\n",
      "  libswscale      6.  4.100 /  6.  4.100\n",
      "  libswresample   4.  3.100 /  4.  3.100\n",
      "  libpostproc    56.  3.100 / 56.  3.100\n",
      "Input #0, flac, from '/home/knoriy/Documents/laion/pps_split/subset/1-12-16_Early_Bird_Breakfast/1-12-16_Early_Bird_Breakfast_DOT_mp3_00038.flac':\n",
      "  Metadata:\n",
      "    comment         : Processed by SoX\n",
      "    encoder         : Lavf58.29.100\n",
      "  Duration: 00:00:14.89, start: 0.000000, bitrate: 161 kb/s\n",
      "  Stream #0:0: Audio: flac, 16000 Hz, mono, s16\n",
      "Stream mapping:\n",
      "  Stream #0:0 -> #0:0 (flac (native) -> flac (native))\n",
      "Press [q] to stop, [?] for help\n",
      "[segment @ 0x560ca2e83300] Opening '/home/knoriy/Documents/laion/pps_split/subset_split/1-12-16_Early_Bird_Breakfast/1-12-16_Early_Bird_Breakfast_DOT_mp3_00038.flac_000.flac' for writing\n",
      "Output #0, segment, to '/home/knoriy/Documents/laion/pps_split/subset_split/1-12-16_Early_Bird_Breakfast/1-12-16_Early_Bird_Breakfast_DOT_mp3_00038.flac_%03d.flac':\n",
      "  Metadata:\n",
      "    comment         : Processed by SoX\n",
      "    encoder         : Lavf59.16.100\n",
      "  Stream #0:0: Audio: flac, 16000 Hz, mono, s16, 128 kb/s\n",
      "    Metadata:\n",
      "      encoder         : Lavc59.18.100 flac\n",
      "[segment @ 0x560ca2e83300] Opening '/home/knoriy/Documents/laion/pps_split/subset_split/1-12-16_Early_Bird_Breakfast/1-12-16_Early_Bird_Breakfast_DOT_mp3_00038.flac_001.flac' for writing\n",
      "size=N/A time=00:00:14.89 bitrate=N/A speed=1.28e+03x    \n",
      "video:0kB audio:285kB subtitle:0kB other streams:0kB global headers:0kB muxing overhead: unknown\n",
      "ffmpeg version 5.0 Copyright (c) 2000-2022 the FFmpeg developers\n",
      "  built with gcc 10.3.0 (GCC)\n",
      "  configuration: --prefix=/home/knoriy/anaconda3/envs/aligner --cc=/home/conda/feedstock_root/build_artifacts/ffmpeg_1646229198505/_build_env/bin/x86_64-conda-linux-gnu-cc --disable-doc --disable-openssl --enable-demuxer=dash --enable-gnutls --enable-gpl --enable-hardcoded-tables --enable-libfreetype --enable-libopenh264 --enable-vaapi --enable-libx264 --enable-libx265 --enable-libaom --enable-libsvtav1 --enable-libxml2 --enable-libvpx --enable-pic --enable-pthreads --enable-shared --disable-static --enable-version3 --enable-zlib --enable-libmp3lame --pkg-config=/home/conda/feedstock_root/build_artifacts/ffmpeg_1646229198505/_build_env/bin/pkg-config\n",
      "  libavutil      57. 17.100 / 57. 17.100\n",
      "  libavcodec     59. 18.100 / 59. 18.100\n",
      "  libavformat    59. 16.100 / 59. 16.100\n",
      "  libavdevice    59.  4.100 / 59.  4.100\n",
      "  libavfilter     8. 24.100 /  8. 24.100\n",
      "  libswscale      6.  4.100 /  6.  4.100\n",
      "  libswresample   4.  3.100 /  4.  3.100\n",
      "  libpostproc    56.  3.100 / 56.  3.100\n",
      "Input #0, flac, from '/home/knoriy/Documents/laion/pps_split/subset/1-12-16_Early_Bird_Breakfast/1-12-16_Early_Bird_Breakfast_DOT_mp3_00143.flac':\n",
      "  Metadata:\n",
      "    comment         : Processed by SoX\n",
      "    encoder         : Lavf58.29.100\n",
      "  Duration: 00:00:14.68, start: 0.000000, bitrate: 158 kb/s\n",
      "  Stream #0:0: Audio: flac, 16000 Hz, mono, s16\n",
      "Stream mapping:\n",
      "  Stream #0:0 -> #0:0 (flac (native) -> flac (native))\n",
      "Press [q] to stop, [?] for help\n",
      "[segment @ 0x55587a542240] Opening '/home/knoriy/Documents/laion/pps_split/subset_split/1-12-16_Early_Bird_Breakfast/1-12-16_Early_Bird_Breakfast_DOT_mp3_00143.flac_000.flac' for writing\n",
      "Output #0, segment, to '/home/knoriy/Documents/laion/pps_split/subset_split/1-12-16_Early_Bird_Breakfast/1-12-16_Early_Bird_Breakfast_DOT_mp3_00143.flac_%03d.flac':\n",
      "  Metadata:\n",
      "    comment         : Processed by SoX\n",
      "    encoder         : Lavf59.16.100\n",
      "  Stream #0:0: Audio: flac, 16000 Hz, mono, s16, 128 kb/s\n",
      "    Metadata:\n",
      "      encoder         : Lavc59.18.100 flac\n",
      "[segment @ 0x55587a542240] Opening '/home/knoriy/Documents/laion/pps_split/subset_split/1-12-16_Early_Bird_Breakfast/1-12-16_Early_Bird_Breakfast_DOT_mp3_00143.flac_001.flac' for writing\n",
      "size=N/A time=00:00:14.68 bitrate=N/A speed=1.35e+03x    \n",
      "video:0kB audio:276kB subtitle:0kB other streams:0kB global headers:0kB muxing overhead: unknown\n",
      "ffmpeg version 5.0 Copyright (c) 2000-2022 the FFmpeg developers\n",
      "  built with gcc 10.3.0 (GCC)\n",
      "  configuration: --prefix=/home/knoriy/anaconda3/envs/aligner --cc=/home/conda/feedstock_root/build_artifacts/ffmpeg_1646229198505/_build_env/bin/x86_64-conda-linux-gnu-cc --disable-doc --disable-openssl --enable-demuxer=dash --enable-gnutls --enable-gpl --enable-hardcoded-tables --enable-libfreetype --enable-libopenh264 --enable-vaapi --enable-libx264 --enable-libx265 --enable-libaom --enable-libsvtav1 --enable-libxml2 --enable-libvpx --enable-pic --enable-pthreads --enable-shared --disable-static --enable-version3 --enable-zlib --enable-libmp3lame --pkg-config=/home/conda/feedstock_root/build_artifacts/ffmpeg_1646229198505/_build_env/bin/pkg-config\n",
      "  libavutil      57. 17.100 / 57. 17.100\n",
      "  libavcodec     59. 18.100 / 59. 18.100\n",
      "  libavformat    59. 16.100 / 59. 16.100\n",
      "  libavdevice    59.  4.100 / 59.  4.100\n",
      "  libavfilter     8. 24.100 /  8. 24.100\n",
      "  libswscale      6.  4.100 /  6.  4.100\n",
      "  libswresample   4.  3.100 /  4.  3.100\n",
      "  libpostproc    56.  3.100 / 56.  3.100\n",
      "Input #0, flac, from '/home/knoriy/Documents/laion/pps_split/subset/1-12-16_Early_Bird_Breakfast/1-12-16_Early_Bird_Breakfast_DOT_mp3_00139.flac':\n",
      "  Metadata:\n",
      "    comment         : Processed by SoX\n",
      "    encoder         : Lavf58.29.100\n",
      "  Duration: 00:00:14.89, start: 0.000000, bitrate: 161 kb/s\n",
      "  Stream #0:0: Audio: flac, 16000 Hz, mono, s16\n",
      "Stream mapping:\n",
      "  Stream #0:0 -> #0:0 (flac (native) -> flac (native))\n",
      "Press [q] to stop, [?] for help\n",
      "[segment @ 0x561dd7c09300] Opening '/home/knoriy/Documents/laion/pps_split/subset_split/1-12-16_Early_Bird_Breakfast/1-12-16_Early_Bird_Breakfast_DOT_mp3_00139.flac_000.flac' for writing\n",
      "Output #0, segment, to '/home/knoriy/Documents/laion/pps_split/subset_split/1-12-16_Early_Bird_Breakfast/1-12-16_Early_Bird_Breakfast_DOT_mp3_00139.flac_%03d.flac':\n",
      "  Metadata:\n",
      "    comment         : Processed by SoX\n",
      "    encoder         : Lavf59.16.100\n",
      "  Stream #0:0: Audio: flac, 16000 Hz, mono, s16, 128 kb/s\n",
      "    Metadata:\n",
      "      encoder         : Lavc59.18.100 flac\n",
      "[segment @ 0x561dd7c09300] Opening '/home/knoriy/Documents/laion/pps_split/subset_split/1-12-16_Early_Bird_Breakfast/1-12-16_Early_Bird_Breakfast_DOT_mp3_00139.flac_001.flac' for writing\n",
      "size=N/A time=00:00:14.89 bitrate=N/A speed= 969x    \n",
      "video:0kB audio:285kB subtitle:0kB other streams:0kB global headers:0kB muxing overhead: unknown\n",
      "ffmpeg version 5.0 Copyright (c) 2000-2022 the FFmpeg developers\n",
      "  built with gcc 10.3.0 (GCC)\n",
      "  configuration: --prefix=/home/knoriy/anaconda3/envs/aligner --cc=/home/conda/feedstock_root/build_artifacts/ffmpeg_1646229198505/_build_env/bin/x86_64-conda-linux-gnu-cc --disable-doc --disable-openssl --enable-demuxer=dash --enable-gnutls --enable-gpl --enable-hardcoded-tables --enable-libfreetype --enable-libopenh264 --enable-vaapi --enable-libx264 --enable-libx265 --enable-libaom --enable-libsvtav1 --enable-libxml2 --enable-libvpx --enable-pic --enable-pthreads --enable-shared --disable-static --enable-version3 --enable-zlib --enable-libmp3lame --pkg-config=/home/conda/feedstock_root/build_artifacts/ffmpeg_1646229198505/_build_env/bin/pkg-config\n",
      "  libavutil      57. 17.100 / 57. 17.100\n",
      "  libavcodec     59. 18.100 / 59. 18.100\n",
      "  libavformat    59. 16.100 / 59. 16.100\n",
      "  libavdevice    59.  4.100 / 59.  4.100\n",
      "  libavfilter     8. 24.100 /  8. 24.100\n",
      "  libswscale      6.  4.100 /  6.  4.100\n",
      "  libswresample   4.  3.100 /  4.  3.100\n",
      "  libpostproc    56.  3.100 / 56.  3.100\n",
      "Input #0, flac, from '/home/knoriy/Documents/laion/pps_split/subset/1-5-16_Historic_District/1-5-16_Historic_District_DOT_mp3_00091.flac':\n",
      "  Metadata:\n",
      "    comment         : Processed by SoX\n",
      "    encoder         : Lavf58.29.100\n",
      "  Duration: 00:00:14.95, start: 0.000000, bitrate: 130 kb/s\n",
      "  Stream #0:0: Audio: flac, 16000 Hz, mono, s16\n",
      "Stream mapping:\n",
      "  Stream #0:0 -> #0:0 (flac (native) -> flac (native))\n",
      "Press [q] to stop, [?] for help\n",
      "[segment @ 0x5569c49a8140] Opening '/home/knoriy/Documents/laion/pps_split/subset_split/1-5-16_Historic_District/1-5-16_Historic_District_DOT_mp3_00091.flac_000.flac' for writing\n",
      "Output #0, segment, to '/home/knoriy/Documents/laion/pps_split/subset_split/1-5-16_Historic_District/1-5-16_Historic_District_DOT_mp3_00091.flac_%03d.flac':\n",
      "  Metadata:\n",
      "    comment         : Processed by SoX\n",
      "    encoder         : Lavf59.16.100\n",
      "  Stream #0:0: Audio: flac, 16000 Hz, mono, s16, 128 kb/s\n",
      "    Metadata:\n",
      "      encoder         : Lavc59.18.100 flac\n",
      "[segment @ 0x5569c49a8140] Opening '/home/knoriy/Documents/laion/pps_split/subset_split/1-5-16_Historic_District/1-5-16_Historic_District_DOT_mp3_00091.flac_001.flac' for writing\n",
      "size=N/A time=00:00:14.95 bitrate=N/A speed=1.29e+03x    \n",
      "video:0kB audio:229kB subtitle:0kB other streams:0kB global headers:0kB muxing overhead: unknown\n",
      "spliting flac files into 5-10 seconds:  27%|██▋       | 4/15 [00:00<00:00, 33.69it/s]ffmpeg version 5.0 Copyright (c) 2000-2022 the FFmpeg developers\n",
      "  built with gcc 10.3.0 (GCC)\n",
      "  configuration: --prefix=/home/knoriy/anaconda3/envs/aligner --cc=/home/conda/feedstock_root/build_artifacts/ffmpeg_1646229198505/_build_env/bin/x86_64-conda-linux-gnu-cc --disable-doc --disable-openssl --enable-demuxer=dash --enable-gnutls --enable-gpl --enable-hardcoded-tables --enable-libfreetype --enable-libopenh264 --enable-vaapi --enable-libx264 --enable-libx265 --enable-libaom --enable-libsvtav1 --enable-libxml2 --enable-libvpx --enable-pic --enable-pthreads --enable-shared --disable-static --enable-version3 --enable-zlib --enable-libmp3lame --pkg-config=/home/conda/feedstock_root/build_artifacts/ffmpeg_1646229198505/_build_env/bin/pkg-config\n",
      "  libavutil      57. 17.100 / 57. 17.100\n",
      "  libavcodec     59. 18.100 / 59. 18.100\n",
      "  libavformat    59. 16.100 / 59. 16.100\n",
      "  libavdevice    59.  4.100 / 59.  4.100\n",
      "  libavfilter     8. 24.100 /  8. 24.100\n",
      "  libswscale      6.  4.100 /  6.  4.100\n",
      "  libswresample   4.  3.100 /  4.  3.100\n",
      "  libpostproc    56.  3.100 / 56.  3.100\n",
      "Input #0, flac, from '/home/knoriy/Documents/laion/pps_split/subset/1-5-16_Historic_District/1-5-16_Historic_District_DOT_mp3_00260.flac':\n",
      "  Metadata:\n",
      "    comment         : Processed by SoX\n",
      "    encoder         : Lavf58.29.100\n",
      "  Duration: 00:00:14.59, start: 0.000000, bitrate: 120 kb/s\n",
      "  Stream #0:0: Audio: flac, 16000 Hz, mono, s16\n",
      "Stream mapping:\n",
      "  Stream #0:0 -> #0:0 (flac (native) -> flac (native))\n",
      "Press [q] to stop, [?] for help\n",
      "[segment @ 0x55cec5abb140] Opening '/home/knoriy/Documents/laion/pps_split/subset_split/1-5-16_Historic_District/1-5-16_Historic_District_DOT_mp3_00260.flac_000.flac' for writing\n",
      "Output #0, segment, to '/home/knoriy/Documents/laion/pps_split/subset_split/1-5-16_Historic_District/1-5-16_Historic_District_DOT_mp3_00260.flac_%03d.flac':\n",
      "  Metadata:\n",
      "    comment         : Processed by SoX\n",
      "    encoder         : Lavf59.16.100\n",
      "  Stream #0:0: Audio: flac, 16000 Hz, mono, s16, 128 kb/s\n",
      "    Metadata:\n",
      "      encoder         : Lavc59.18.100 flac\n",
      "[segment @ 0x55cec5abb140] Opening '/home/knoriy/Documents/laion/pps_split/subset_split/1-5-16_Historic_District/1-5-16_Historic_District_DOT_mp3_00260.flac_001.flac' for writing\n",
      "size=N/A time=00:00:14.59 bitrate=N/A speed=1.49e+03x    \n",
      "video:0kB audio:206kB subtitle:0kB other streams:0kB global headers:0kB muxing overhead: unknown\n",
      "ffmpeg version 5.0 Copyright (c) 2000-2022 the FFmpeg developers\n",
      "  built with gcc 10.3.0 (GCC)\n",
      "  configuration: --prefix=/home/knoriy/anaconda3/envs/aligner --cc=/home/conda/feedstock_root/build_artifacts/ffmpeg_1646229198505/_build_env/bin/x86_64-conda-linux-gnu-cc --disable-doc --disable-openssl --enable-demuxer=dash --enable-gnutls --enable-gpl --enable-hardcoded-tables --enable-libfreetype --enable-libopenh264 --enable-vaapi --enable-libx264 --enable-libx265 --enable-libaom --enable-libsvtav1 --enable-libxml2 --enable-libvpx --enable-pic --enable-pthreads --enable-shared --disable-static --enable-version3 --enable-zlib --enable-libmp3lame --pkg-config=/home/conda/feedstock_root/build_artifacts/ffmpeg_1646229198505/_build_env/bin/pkg-config\n",
      "  libavutil      57. 17.100 / 57. 17.100\n",
      "  libavcodec     59. 18.100 / 59. 18.100\n",
      "  libavformat    59. 16.100 / 59. 16.100\n",
      "  libavdevice    59.  4.100 / 59.  4.100\n",
      "  libavfilter     8. 24.100 /  8. 24.100\n",
      "  libswscale      6.  4.100 /  6.  4.100\n",
      "  libswresample   4.  3.100 /  4.  3.100\n",
      "  libpostproc    56.  3.100 / 56.  3.100\n",
      "Input #0, flac, from '/home/knoriy/Documents/laion/pps_split/subset/1-5-16_Historic_District/1-5-16_Historic_District_DOT_mp3_00124.flac':\n",
      "  Metadata:\n",
      "    comment         : Processed by SoX\n",
      "    encoder         : Lavf58.29.100\n",
      "  Duration: 00:00:04.26, start: 0.000000, bitrate: 143 kb/s\n",
      "  Stream #0:0: Audio: flac, 16000 Hz, mono, s16\n",
      "Stream mapping:\n",
      "  Stream #0:0 -> #0:0 (flac (native) -> flac (native))\n",
      "Press [q] to stop, [?] for help\n",
      "[segment @ 0x55d091930240] Opening '/home/knoriy/Documents/laion/pps_split/subset_split/1-5-16_Historic_District/1-5-16_Historic_District_DOT_mp3_00124.flac_000.flac' for writing\n",
      "Output #0, segment, to '/home/knoriy/Documents/laion/pps_split/subset_split/1-5-16_Historic_District/1-5-16_Historic_District_DOT_mp3_00124.flac_%03d.flac':\n",
      "  Metadata:\n",
      "    comment         : Processed by SoX\n",
      "    encoder         : Lavf59.16.100\n",
      "  Stream #0:0: Audio: flac, 16000 Hz, mono, s16, 128 kb/s\n",
      "    Metadata:\n",
      "      encoder         : Lavc59.18.100 flac\n",
      "[segment @ 0x55d091930240] Opening '/home/knoriy/Documents/laion/pps_split/subset_split/1-5-16_Historic_District/1-5-16_Historic_District_DOT_mp3_00124.flac_001.flac' for writing\n",
      "size=N/A time=00:00:04.26 bitrate=N/A speed= 910x    \n",
      "video:0kB audio:66kB subtitle:0kB other streams:0kB global headers:0kB muxing overhead: unknown\n",
      "ffmpeg version 5.0 Copyright (c) 2000-2022 the FFmpeg developers\n",
      "  built with gcc 10.3.0 (GCC)\n",
      "  configuration: --prefix=/home/knoriy/anaconda3/envs/aligner --cc=/home/conda/feedstock_root/build_artifacts/ffmpeg_1646229198505/_build_env/bin/x86_64-conda-linux-gnu-cc --disable-doc --disable-openssl --enable-demuxer=dash --enable-gnutls --enable-gpl --enable-hardcoded-tables --enable-libfreetype --enable-libopenh264 --enable-vaapi --enable-libx264 --enable-libx265 --enable-libaom --enable-libsvtav1 --enable-libxml2 --enable-libvpx --enable-pic --enable-pthreads --enable-shared --disable-static --enable-version3 --enable-zlib --enable-libmp3lame --pkg-config=/home/conda/feedstock_root/build_artifacts/ffmpeg_1646229198505/_build_env/bin/pkg-config\n",
      "  libavutil      57. 17.100 / 57. 17.100\n",
      "  libavcodec     59. 18.100 / 59. 18.100\n",
      "  libavformat    59. 16.100 / 59. 16.100\n",
      "  libavdevice    59.  4.100 / 59.  4.100\n",
      "  libavfilter     8. 24.100 /  8. 24.100\n",
      "  libswscale      6.  4.100 /  6.  4.100\n",
      "  libswresample   4.  3.100 /  4.  3.100\n",
      "  libpostproc    56.  3.100 / 56.  3.100\n",
      "Input #0, flac, from '/home/knoriy/Documents/laion/pps_split/subset/1-5-16_Historic_District/1-5-16_Historic_District_DOT_mp3_00000.flac':\n",
      "  Metadata:\n",
      "    comment         : Processed by SoX\n",
      "    encoder         : Lavf58.29.100\n",
      "  Duration: 00:00:14.77, start: 0.000000, bitrate: 140 kb/s\n",
      "  Stream #0:0: Audio: flac, 16000 Hz, mono, s16\n",
      "Stream mapping:\n",
      "  Stream #0:0 -> #0:0 (flac (native) -> flac (native))\n",
      "Press [q] to stop, [?] for help\n",
      "[segment @ 0x55fe43cd4140] Opening '/home/knoriy/Documents/laion/pps_split/subset_split/1-5-16_Historic_District/1-5-16_Historic_District_DOT_mp3_00000.flac_000.flac' for writing\n",
      "Output #0, segment, to '/home/knoriy/Documents/laion/pps_split/subset_split/1-5-16_Historic_District/1-5-16_Historic_District_DOT_mp3_00000.flac_%03d.flac':\n",
      "  Metadata:\n",
      "    comment         : Processed by SoX\n",
      "    encoder         : Lavf59.16.100\n",
      "  Stream #0:0: Audio: flac, 16000 Hz, mono, s16, 128 kb/s\n",
      "    Metadata:\n",
      "      encoder         : Lavc59.18.100 flac\n",
      "[segment @ 0x55fe43cd4140] Opening '/home/knoriy/Documents/laion/pps_split/subset_split/1-5-16_Historic_District/1-5-16_Historic_District_DOT_mp3_00000.flac_001.flac' for writing\n",
      "size=N/A time=00:00:14.77 bitrate=N/A speed=1.6e+03x    \n",
      "video:0kB audio:244kB subtitle:0kB other streams:0kB global headers:0kB muxing overhead: unknown\n",
      "ffmpeg version 5.0 Copyright (c) 2000-2022 the FFmpeg developers\n",
      "  built with gcc 10.3.0 (GCC)\n",
      "  configuration: --prefix=/home/knoriy/anaconda3/envs/aligner --cc=/home/conda/feedstock_root/build_artifacts/ffmpeg_1646229198505/_build_env/bin/x86_64-conda-linux-gnu-cc --disable-doc --disable-openssl --enable-demuxer=dash --enable-gnutls --enable-gpl --enable-hardcoded-tables --enable-libfreetype --enable-libopenh264 --enable-vaapi --enable-libx264 --enable-libx265 --enable-libaom --enable-libsvtav1 --enable-libxml2 --enable-libvpx --enable-pic --enable-pthreads --enable-shared --disable-static --enable-version3 --enable-zlib --enable-libmp3lame --pkg-config=/home/conda/feedstock_root/build_artifacts/ffmpeg_1646229198505/_build_env/bin/pkg-config\n",
      "  libavutil      57. 17.100 / 57. 17.100\n",
      "  libavcodec     59. 18.100 / 59. 18.100\n",
      "  libavformat    59. 16.100 / 59. 16.100\n",
      "  libavdevice    59.  4.100 / 59.  4.100\n",
      "  libavfilter     8. 24.100 /  8. 24.100\n",
      "  libswscale      6.  4.100 /  6.  4.100\n",
      "  libswresample   4.  3.100 /  4.  3.100\n",
      "  libpostproc    56.  3.100 / 56.  3.100\n",
      "Input #0, flac, from '/home/knoriy/Documents/laion/pps_split/subset/1-5-16_Historic_District/1-5-16_Historic_District_DOT_mp3_00060.flac':\n",
      "  Metadata:\n",
      "    comment         : Processed by SoX\n",
      "    encoder         : Lavf58.29.100\n",
      "  Duration: 00:00:14.89, start: 0.000000, bitrate: 145 kb/s\n",
      "  Stream #0:0: Audio: flac, 16000 Hz, mono, s16\n",
      "Stream mapping:\n",
      "  Stream #0:0 -> #0:0 (flac (native) -> flac (native))\n",
      "Press [q] to stop, [?] for help\n",
      "[segment @ 0x55b1b7a09140] Opening '/home/knoriy/Documents/laion/pps_split/subset_split/1-5-16_Historic_District/1-5-16_Historic_District_DOT_mp3_00060.flac_000.flac' for writing\n",
      "Output #0, segment, to '/home/knoriy/Documents/laion/pps_split/subset_split/1-5-16_Historic_District/1-5-16_Historic_District_DOT_mp3_00060.flac_%03d.flac':\n",
      "  Metadata:\n",
      "    comment         : Processed by SoX\n",
      "    encoder         : Lavf59.16.100\n",
      "  Stream #0:0: Audio: flac, 16000 Hz, mono, s16, 128 kb/s\n",
      "    Metadata:\n",
      "      encoder         : Lavc59.18.100 flac\n",
      "[segment @ 0x55b1b7a09140] Opening '/home/knoriy/Documents/laion/pps_split/subset_split/1-5-16_Historic_District/1-5-16_Historic_District_DOT_mp3_00060.flac_001.flac' for writing\n",
      "size=N/A time=00:00:14.89 bitrate=N/A speed=1.41e+03x    \n",
      "video:0kB audio:256kB subtitle:0kB other streams:0kB global headers:0kB muxing overhead: unknown\n",
      "ffmpeg version 5.0 Copyright (c) 2000-2022 the FFmpeg developers\n",
      "  built with gcc 10.3.0 (GCC)\n",
      "  configuration: --prefix=/home/knoriy/anaconda3/envs/aligner --cc=/home/conda/feedstock_root/build_artifacts/ffmpeg_1646229198505/_build_env/bin/x86_64-conda-linux-gnu-cc --disable-doc --disable-openssl --enable-demuxer=dash --enable-gnutls --enable-gpl --enable-hardcoded-tables --enable-libfreetype --enable-libopenh264 --enable-vaapi --enable-libx264 --enable-libx265 --enable-libaom --enable-libsvtav1 --enable-libxml2 --enable-libvpx --enable-pic --enable-pthreads --enable-shared --disable-static --enable-version3 --enable-zlib --enable-libmp3lame --pkg-config=/home/conda/feedstock_root/build_artifacts/ffmpeg_1646229198505/_build_env/bin/pkg-config\n",
      "  libavutil      57. 17.100 / 57. 17.100\n",
      "  libavcodec     59. 18.100 / 59. 18.100\n",
      "  libavformat    59. 16.100 / 59. 16.100\n",
      "  libavdevice    59.  4.100 / 59.  4.100\n",
      "  libavfilter     8. 24.100 /  8. 24.100\n",
      "  libswscale      6.  4.100 /  6.  4.100\n",
      "  libswresample   4.  3.100 /  4.  3.100\n",
      "  libpostproc    56.  3.100 / 56.  3.100\n",
      "Input #0, flac, from '/home/knoriy/Documents/laion/pps_split/subset/1-4-17_City_Council/1-4-17_City_Council_DOT_mp3_00175.flac':\n",
      "  Metadata:\n",
      "    comment         : Processed by SoX\n",
      "    encoder         : Lavf58.29.100\n",
      "  Duration: 00:00:14.68, start: 0.000000, bitrate: 145 kb/s\n",
      "  Stream #0:0: Audio: flac, 16000 Hz, mono, s16\n",
      "Stream mapping:\n",
      "  Stream #0:0 -> #0:0 (flac (native) -> flac (native))\n",
      "Press [q] to stop, [?] for help\n",
      "[segment @ 0x555f3cc1a240] Opening '/home/knoriy/Documents/laion/pps_split/subset_split/1-4-17_City_Council/1-4-17_City_Council_DOT_mp3_00175.flac_000.flac' for writing\n",
      "Output #0, segment, to '/home/knoriy/Documents/laion/pps_split/subset_split/1-4-17_City_Council/1-4-17_City_Council_DOT_mp3_00175.flac_%03d.flac':\n",
      "  Metadata:\n",
      "    comment         : Processed by SoX\n",
      "    encoder         : Lavf59.16.100\n",
      "  Stream #0:0: Audio: flac, 16000 Hz, mono, s16, 128 kb/s\n",
      "    Metadata:\n",
      "      encoder         : Lavc59.18.100 flac\n",
      "[segment @ 0x555f3cc1a240] Opening '/home/knoriy/Documents/laion/pps_split/subset_split/1-4-17_City_Council/1-4-17_City_Council_DOT_mp3_00175.flac_001.flac' for writing\n",
      "size=N/A time=00:00:14.68 bitrate=N/A speed=1.02e+03x    \n",
      "video:0kB audio:253kB subtitle:0kB other streams:0kB global headers:0kB muxing overhead: unknown\n",
      "spliting flac files into 5-10 seconds:  60%|██████    | 9/15 [00:00<00:00, 37.76it/s]ffmpeg version 5.0 Copyright (c) 2000-2022 the FFmpeg developers\n",
      "  built with gcc 10.3.0 (GCC)\n",
      "  configuration: --prefix=/home/knoriy/anaconda3/envs/aligner --cc=/home/conda/feedstock_root/build_artifacts/ffmpeg_1646229198505/_build_env/bin/x86_64-conda-linux-gnu-cc --disable-doc --disable-openssl --enable-demuxer=dash --enable-gnutls --enable-gpl --enable-hardcoded-tables --enable-libfreetype --enable-libopenh264 --enable-vaapi --enable-libx264 --enable-libx265 --enable-libaom --enable-libsvtav1 --enable-libxml2 --enable-libvpx --enable-pic --enable-pthreads --enable-shared --disable-static --enable-version3 --enable-zlib --enable-libmp3lame --pkg-config=/home/conda/feedstock_root/build_artifacts/ffmpeg_1646229198505/_build_env/bin/pkg-config\n",
      "  libavutil      57. 17.100 / 57. 17.100\n",
      "  libavcodec     59. 18.100 / 59. 18.100\n",
      "  libavformat    59. 16.100 / 59. 16.100\n",
      "  libavdevice    59.  4.100 / 59.  4.100\n",
      "  libavfilter     8. 24.100 /  8. 24.100\n",
      "  libswscale      6.  4.100 /  6.  4.100\n",
      "  libswresample   4.  3.100 /  4.  3.100\n",
      "  libpostproc    56.  3.100 / 56.  3.100\n",
      "Input #0, flac, from '/home/knoriy/Documents/laion/pps_split/subset/1-4-17_City_Council/1-4-17_City_Council_DOT_mp3_00131.flac':\n",
      "  Metadata:\n",
      "    comment         : Processed by SoX\n",
      "    encoder         : Lavf58.29.100\n",
      "  Duration: 00:00:01.86, start: 0.000000, bitrate: 163 kb/s\n",
      "  Stream #0:0: Audio: flac, 16000 Hz, mono, s16\n",
      "Stream mapping:\n",
      "  Stream #0:0 -> #0:0 (flac (native) -> flac (native))\n",
      "Press [q] to stop, [?] for help\n",
      "[segment @ 0x56277a2cd240] Opening '/home/knoriy/Documents/laion/pps_split/subset_split/1-4-17_City_Council/1-4-17_City_Council_DOT_mp3_00131.flac_000.flac' for writing\n",
      "Output #0, segment, to '/home/knoriy/Documents/laion/pps_split/subset_split/1-4-17_City_Council/1-4-17_City_Council_DOT_mp3_00131.flac_%03d.flac':\n",
      "  Metadata:\n",
      "    comment         : Processed by SoX\n",
      "    encoder         : Lavf59.16.100\n",
      "  Stream #0:0: Audio: flac, 16000 Hz, mono, s16, 128 kb/s\n",
      "    Metadata:\n",
      "      encoder         : Lavc59.18.100 flac\n",
      "[segment @ 0x56277a2cd240] Opening '/home/knoriy/Documents/laion/pps_split/subset_split/1-4-17_City_Council/1-4-17_City_Council_DOT_mp3_00131.flac_001.flac' for writing\n",
      "size=N/A time=00:00:01.86 bitrate=N/A speed= 644x    \n",
      "video:0kB audio:29kB subtitle:0kB other streams:0kB global headers:0kB muxing overhead: unknown\n",
      "ffmpeg version 5.0 Copyright (c) 2000-2022 the FFmpeg developers\n",
      "  built with gcc 10.3.0 (GCC)\n",
      "  configuration: --prefix=/home/knoriy/anaconda3/envs/aligner --cc=/home/conda/feedstock_root/build_artifacts/ffmpeg_1646229198505/_build_env/bin/x86_64-conda-linux-gnu-cc --disable-doc --disable-openssl --enable-demuxer=dash --enable-gnutls --enable-gpl --enable-hardcoded-tables --enable-libfreetype --enable-libopenh264 --enable-vaapi --enable-libx264 --enable-libx265 --enable-libaom --enable-libsvtav1 --enable-libxml2 --enable-libvpx --enable-pic --enable-pthreads --enable-shared --disable-static --enable-version3 --enable-zlib --enable-libmp3lame --pkg-config=/home/conda/feedstock_root/build_artifacts/ffmpeg_1646229198505/_build_env/bin/pkg-config\n",
      "  libavutil      57. 17.100 / 57. 17.100\n",
      "  libavcodec     59. 18.100 / 59. 18.100\n",
      "  libavformat    59. 16.100 / 59. 16.100\n",
      "  libavdevice    59.  4.100 / 59.  4.100\n",
      "  libavfilter     8. 24.100 /  8. 24.100\n",
      "  libswscale      6.  4.100 /  6.  4.100\n",
      "  libswresample   4.  3.100 /  4.  3.100\n",
      "  libpostproc    56.  3.100 / 56.  3.100\n",
      "Input #0, flac, from '/home/knoriy/Documents/laion/pps_split/subset/1-4-17_City_Council/1-4-17_City_Council_DOT_mp3_00167.flac':\n",
      "  Metadata:\n",
      "    comment         : Processed by SoX\n",
      "    encoder         : Lavf58.29.100\n",
      "  Duration: 00:00:14.83, start: 0.000000, bitrate: 135 kb/s\n",
      "  Stream #0:0: Audio: flac, 16000 Hz, mono, s16\n",
      "Stream mapping:\n",
      "  Stream #0:0 -> #0:0 (flac (native) -> flac (native))\n",
      "Press [q] to stop, [?] for help\n",
      "[segment @ 0x56231e9a8140] Opening '/home/knoriy/Documents/laion/pps_split/subset_split/1-4-17_City_Council/1-4-17_City_Council_DOT_mp3_00167.flac_000.flac' for writing\n",
      "Output #0, segment, to '/home/knoriy/Documents/laion/pps_split/subset_split/1-4-17_City_Council/1-4-17_City_Council_DOT_mp3_00167.flac_%03d.flac':\n",
      "  Metadata:\n",
      "    comment         : Processed by SoX\n",
      "    encoder         : Lavf59.16.100\n",
      "  Stream #0:0: Audio: flac, 16000 Hz, mono, s16, 128 kb/s\n",
      "    Metadata:\n",
      "      encoder         : Lavc59.18.100 flac\n",
      "[segment @ 0x56231e9a8140] Opening '/home/knoriy/Documents/laion/pps_split/subset_split/1-4-17_City_Council/1-4-17_City_Council_DOT_mp3_00167.flac_001.flac' for writing\n",
      "size=N/A time=00:00:14.83 bitrate=N/A speed=1.4e+03x    \n",
      "video:0kB audio:238kB subtitle:0kB other streams:0kB global headers:0kB muxing overhead: unknown\n",
      "ffmpeg version 5.0 Copyright (c) 2000-2022 the FFmpeg developers\n",
      "  built with gcc 10.3.0 (GCC)\n",
      "  configuration: --prefix=/home/knoriy/anaconda3/envs/aligner --cc=/home/conda/feedstock_root/build_artifacts/ffmpeg_1646229198505/_build_env/bin/x86_64-conda-linux-gnu-cc --disable-doc --disable-openssl --enable-demuxer=dash --enable-gnutls --enable-gpl --enable-hardcoded-tables --enable-libfreetype --enable-libopenh264 --enable-vaapi --enable-libx264 --enable-libx265 --enable-libaom --enable-libsvtav1 --enable-libxml2 --enable-libvpx --enable-pic --enable-pthreads --enable-shared --disable-static --enable-version3 --enable-zlib --enable-libmp3lame --pkg-config=/home/conda/feedstock_root/build_artifacts/ffmpeg_1646229198505/_build_env/bin/pkg-config\n",
      "  libavutil      57. 17.100 / 57. 17.100\n",
      "  libavcodec     59. 18.100 / 59. 18.100\n",
      "  libavformat    59. 16.100 / 59. 16.100\n",
      "  libavdevice    59.  4.100 / 59.  4.100\n",
      "  libavfilter     8. 24.100 /  8. 24.100\n",
      "  libswscale      6.  4.100 /  6.  4.100\n",
      "  libswresample   4.  3.100 /  4.  3.100\n",
      "  libpostproc    56.  3.100 / 56.  3.100\n",
      "Input #0, flac, from '/home/knoriy/Documents/laion/pps_split/subset/1-3-18_City_Council_Meeting/1-3-18_City_Council_Meeting_DOT_HD_DOT_mp3_00008.flac':\n",
      "  Metadata:\n",
      "    comment         : Processed by SoX\n",
      "    encoder         : Lavf58.29.100\n",
      "  Duration: 00:00:14.77, start: 0.000000, bitrate: 148 kb/s\n",
      "  Stream #0:0: Audio: flac, 16000 Hz, mono, s16\n",
      "Stream mapping:\n",
      "  Stream #0:0 -> #0:0 (flac (native) -> flac (native))\n",
      "Press [q] to stop, [?] for help\n",
      "[segment @ 0x55ec709f90c0] Opening '/home/knoriy/Documents/laion/pps_split/subset_split/1-3-18_City_Council_Meeting/1-3-18_City_Council_Meeting_DOT_HD_DOT_mp3_00008.flac_000.flac' for writing\n",
      "Output #0, segment, to '/home/knoriy/Documents/laion/pps_split/subset_split/1-3-18_City_Council_Meeting/1-3-18_City_Council_Meeting_DOT_HD_DOT_mp3_00008.flac_%03d.flac':\n",
      "  Metadata:\n",
      "    comment         : Processed by SoX\n",
      "    encoder         : Lavf59.16.100\n",
      "  Stream #0:0: Audio: flac, 16000 Hz, mono, s16, 128 kb/s\n",
      "    Metadata:\n",
      "      encoder         : Lavc59.18.100 flac\n",
      "[segment @ 0x55ec709f90c0] Opening '/home/knoriy/Documents/laion/pps_split/subset_split/1-3-18_City_Council_Meeting/1-3-18_City_Council_Meeting_DOT_HD_DOT_mp3_00008.flac_001.flac' for writing\n",
      "size=N/A time=00:00:14.77 bitrate=N/A speed=1.52e+03x    \n",
      "video:0kB audio:259kB subtitle:0kB other streams:0kB global headers:0kB muxing overhead: unknown\n",
      "ffmpeg version 5.0 Copyright (c) 2000-2022 the FFmpeg developers\n",
      "  built with gcc 10.3.0 (GCC)\n",
      "  configuration: --prefix=/home/knoriy/anaconda3/envs/aligner --cc=/home/conda/feedstock_root/build_artifacts/ffmpeg_1646229198505/_build_env/bin/x86_64-conda-linux-gnu-cc --disable-doc --disable-openssl --enable-demuxer=dash --enable-gnutls --enable-gpl --enable-hardcoded-tables --enable-libfreetype --enable-libopenh264 --enable-vaapi --enable-libx264 --enable-libx265 --enable-libaom --enable-libsvtav1 --enable-libxml2 --enable-libvpx --enable-pic --enable-pthreads --enable-shared --disable-static --enable-version3 --enable-zlib --enable-libmp3lame --pkg-config=/home/conda/feedstock_root/build_artifacts/ffmpeg_1646229198505/_build_env/bin/pkg-config\n",
      "  libavutil      57. 17.100 / 57. 17.100\n",
      "  libavcodec     59. 18.100 / 59. 18.100\n",
      "  libavformat    59. 16.100 / 59. 16.100\n",
      "  libavdevice    59.  4.100 / 59.  4.100\n",
      "  libavfilter     8. 24.100 /  8. 24.100\n",
      "  libswscale      6.  4.100 /  6.  4.100\n",
      "  libswresample   4.  3.100 /  4.  3.100\n",
      "  libpostproc    56.  3.100 / 56.  3.100\n",
      "Input #0, flac, from '/home/knoriy/Documents/laion/pps_split/subset/1-6-16_City_Council/1-6-16_City_Council_DOT_mp3_00057.flac':\n",
      "  Metadata:\n",
      "    comment         : Processed by SoX\n",
      "    encoder         : Lavf58.29.100\n",
      "  Duration: 00:00:14.65, start: 0.000000, bitrate: 135 kb/s\n",
      "  Stream #0:0: Audio: flac, 16000 Hz, mono, s16\n",
      "Stream mapping:\n",
      "  Stream #0:0 -> #0:0 (flac (native) -> flac (native))\n",
      "Press [q] to stop, [?] for help\n",
      "[segment @ 0x555d11008140] Opening '/home/knoriy/Documents/laion/pps_split/subset_split/1-6-16_City_Council/1-6-16_City_Council_DOT_mp3_00057.flac_000.flac' for writing\n",
      "Output #0, segment, to '/home/knoriy/Documents/laion/pps_split/subset_split/1-6-16_City_Council/1-6-16_City_Council_DOT_mp3_00057.flac_%03d.flac':\n",
      "  Metadata:\n",
      "    comment         : Processed by SoX\n",
      "    encoder         : Lavf59.16.100\n",
      "  Stream #0:0: Audio: flac, 16000 Hz, mono, s16, 128 kb/s\n",
      "    Metadata:\n",
      "      encoder         : Lavc59.18.100 flac\n",
      "[segment @ 0x555d11008140] Opening '/home/knoriy/Documents/laion/pps_split/subset_split/1-6-16_City_Council/1-6-16_City_Council_DOT_mp3_00057.flac_001.flac' for writing\n",
      "size=N/A time=00:00:14.65 bitrate=N/A speed=1.42e+03x    \n",
      "video:0kB audio:235kB subtitle:0kB other streams:0kB global headers:0kB muxing overhead: unknown\n",
      "ffmpeg version 5.0 Copyright (c) 2000-2022 the FFmpeg developers\n",
      "  built with gcc 10.3.0 (GCC)\n",
      "  configuration: --prefix=/home/knoriy/anaconda3/envs/aligner --cc=/home/conda/feedstock_root/build_artifacts/ffmpeg_1646229198505/_build_env/bin/x86_64-conda-linux-gnu-cc --disable-doc --disable-openssl --enable-demuxer=dash --enable-gnutls --enable-gpl --enable-hardcoded-tables --enable-libfreetype --enable-libopenh264 --enable-vaapi --enable-libx264 --enable-libx265 --enable-libaom --enable-libsvtav1 --enable-libxml2 --enable-libvpx --enable-pic --enable-pthreads --enable-shared --disable-static --enable-version3 --enable-zlib --enable-libmp3lame --pkg-config=/home/conda/feedstock_root/build_artifacts/ffmpeg_1646229198505/_build_env/bin/pkg-config\n",
      "  libavutil      57. 17.100 / 57. 17.100\n",
      "  libavcodec     59. 18.100 / 59. 18.100\n",
      "  libavformat    59. 16.100 / 59. 16.100\n",
      "  libavdevice    59.  4.100 / 59.  4.100\n",
      "  libavfilter     8. 24.100 /  8. 24.100\n",
      "  libswscale      6.  4.100 /  6.  4.100\n",
      "  libswresample   4.  3.100 /  4.  3.100\n",
      "  libpostproc    56.  3.100 / 56.  3.100\n",
      "Input #0, flac, from '/home/knoriy/Documents/laion/pps_split/subset/1-6-16_City_Council/1-6-16_City_Council_DOT_mp3_00131.flac':\n",
      "  Metadata:\n",
      "    comment         : Processed by SoX\n",
      "    encoder         : Lavf58.29.100\n",
      "  Duration: 00:00:14.94, start: 0.000000, bitrate: 138 kb/s\n",
      "  Stream #0:0: Audio: flac, 16000 Hz, mono, s16\n",
      "Stream mapping:\n",
      "  Stream #0:0 -> #0:0 (flac (native) -> flac (native))\n",
      "Press [q] to stop, [?] for help\n",
      "[segment @ 0x5610c6197240] Opening '/home/knoriy/Documents/laion/pps_split/subset_split/1-6-16_City_Council/1-6-16_City_Council_DOT_mp3_00131.flac_000.flac' for writing\n",
      "Output #0, segment, to '/home/knoriy/Documents/laion/pps_split/subset_split/1-6-16_City_Council/1-6-16_City_Council_DOT_mp3_00131.flac_%03d.flac':\n",
      "  Metadata:\n",
      "    comment         : Processed by SoX\n",
      "    encoder         : Lavf59.16.100\n",
      "  Stream #0:0: Audio: flac, 16000 Hz, mono, s16, 128 kb/s\n",
      "    Metadata:\n",
      "      encoder         : Lavc59.18.100 flac\n",
      "[segment @ 0x5610c6197240] Opening '/home/knoriy/Documents/laion/pps_split/subset_split/1-6-16_City_Council/1-6-16_City_Council_DOT_mp3_00131.flac_001.flac' for writing\n",
      "size=N/A time=00:00:14.94 bitrate=N/A speed=1.49e+03x    \n",
      "video:0kB audio:245kB subtitle:0kB other streams:0kB global headers:0kB muxing overhead: unknown\n",
      "spliting flac files into 5-10 seconds:  93%|█████████▎| 14/15 [00:00<00:00, 39.91it/s]ffmpeg version 5.0 Copyright (c) 2000-2022 the FFmpeg developers\n",
      "  built with gcc 10.3.0 (GCC)\n",
      "  configuration: --prefix=/home/knoriy/anaconda3/envs/aligner --cc=/home/conda/feedstock_root/build_artifacts/ffmpeg_1646229198505/_build_env/bin/x86_64-conda-linux-gnu-cc --disable-doc --disable-openssl --enable-demuxer=dash --enable-gnutls --enable-gpl --enable-hardcoded-tables --enable-libfreetype --enable-libopenh264 --enable-vaapi --enable-libx264 --enable-libx265 --enable-libaom --enable-libsvtav1 --enable-libxml2 --enable-libvpx --enable-pic --enable-pthreads --enable-shared --disable-static --enable-version3 --enable-zlib --enable-libmp3lame --pkg-config=/home/conda/feedstock_root/build_artifacts/ffmpeg_1646229198505/_build_env/bin/pkg-config\n",
      "  libavutil      57. 17.100 / 57. 17.100\n",
      "  libavcodec     59. 18.100 / 59. 18.100\n",
      "  libavformat    59. 16.100 / 59. 16.100\n",
      "  libavdevice    59.  4.100 / 59.  4.100\n",
      "  libavfilter     8. 24.100 /  8. 24.100\n",
      "  libswscale      6.  4.100 /  6.  4.100\n",
      "  libswresample   4.  3.100 /  4.  3.100\n",
      "  libpostproc    56.  3.100 / 56.  3.100\n",
      "Input #0, flac, from '/home/knoriy/Documents/laion/pps_split/subset/1-6-16_City_Council/1-6-16_City_Council_DOT_mp3_00034.flac':\n",
      "  Metadata:\n",
      "    comment         : Processed by SoX\n",
      "    encoder         : Lavf58.29.100\n",
      "  Duration: 00:00:14.95, start: 0.000000, bitrate: 148 kb/s\n",
      "  Stream #0:0: Audio: flac, 16000 Hz, mono, s16\n",
      "Stream mapping:\n",
      "  Stream #0:0 -> #0:0 (flac (native) -> flac (native))\n",
      "Press [q] to stop, [?] for help\n",
      "[segment @ 0x5569db0d4140] Opening '/home/knoriy/Documents/laion/pps_split/subset_split/1-6-16_City_Council/1-6-16_City_Council_DOT_mp3_00034.flac_000.flac' for writing\n",
      "Output #0, segment, to '/home/knoriy/Documents/laion/pps_split/subset_split/1-6-16_City_Council/1-6-16_City_Council_DOT_mp3_00034.flac_%03d.flac':\n",
      "  Metadata:\n",
      "    comment         : Processed by SoX\n",
      "    encoder         : Lavf59.16.100\n",
      "  Stream #0:0: Audio: flac, 16000 Hz, mono, s16, 128 kb/s\n",
      "    Metadata:\n",
      "      encoder         : Lavc59.18.100 flac\n",
      "[segment @ 0x5569db0d4140] Opening '/home/knoriy/Documents/laion/pps_split/subset_split/1-6-16_City_Council/1-6-16_City_Council_DOT_mp3_00034.flac_001.flac' for writing\n",
      "size=N/A time=00:00:14.95 bitrate=N/A speed=1.36e+03x    \n",
      "video:0kB audio:263kB subtitle:0kB other streams:0kB global headers:0kB muxing overhead: unknown\n",
      "spliting flac files into 5-10 seconds: 100%|██████████| 15/15 [00:00<00:00, 38.68it/s]\n"
     ]
    }
   ],
   "source": [
    "import os\n",
    "import pandas as pd\n",
    "from utils import flac_to_wav\n",
    "import tqdm\n",
    "\n",
    "def main():\n",
    "    df = pd.read_csv('/home/knoriy/Documents/laion/pps_split/subset.tsv', names=[\"audio_filepath\",\"duration\", \"shard_id\", \"text\"], header=None, sep=\"\\t\")\n",
    "    base_pps_dataset_path = '/home/knoriy/Documents/laion/pps_split/subset'\n",
    "\n",
    "    generate_txt(df)\n",
    "\n",
    "    for row in tqdm.tqdm(df.iloc, desc=\"Converting .flac files to .wav\"):\n",
    "        flac_path = os.path.join(base_pps_dataset_path, f'{row[\"audio_filepath\"]}')\n",
    "        wav_path = os.path.join(base_pps_dataset_path, f'{row[\"audio_filepath\"].split(\".\")[0]}.wav')\n",
    "        flac_to_wav(flac_path, wav_path, overwrite=True, no_log=False)\n",
    "\n",
    "    generate_textgrids(base_pps_dataset_path)\n",
    "    split_audio('/home/knoriy/Documents/laion/pps_split/subset_textgrids', base_pps_dataset_path)\n",
    "\n",
    "main()\n"
   ]
  },
  {
   "cell_type": "code",
   "execution_count": null,
   "metadata": {},
   "outputs": [],
   "source": []
  }
 ],
 "metadata": {
  "kernelspec": {
   "display_name": "Python 3.10.2 ('aligner')",
   "language": "python",
   "name": "python3"
  },
  "language_info": {
   "codemirror_mode": {
    "name": "ipython",
    "version": 3
   },
   "file_extension": ".py",
   "mimetype": "text/x-python",
   "name": "python",
   "nbconvert_exporter": "python",
   "pygments_lexer": "ipython3",
   "version": "3.10.2"
  },
  "vscode": {
   "interpreter": {
    "hash": "e21918bae0143b5a633fbf1b4c6b5406aaf2f0d47fb4c4c8eb32f4c836e66610"
   }
  }
 },
 "nbformat": 4,
 "nbformat_minor": 4
}
